<mxfile host="app.diagrams.net" agent="Mozilla/5.0 (Windows NT 10.0; Win64; x64; rv:139.0) Gecko/20100101 Firefox/139.0" version="27.2.0" pages="2">
  <diagram id="0" name="Page-1">
    <mxGraphModel dx="2313" dy="1825" grid="0" gridSize="10" guides="1" tooltips="1" connect="1" arrows="1" fold="1" page="0" pageScale="1" pageWidth="827" pageHeight="1169" math="0" shadow="0">
      <root>
        <mxCell id="0" />
        <mxCell id="1" parent="0" />
        <mxCell id="v1lEg4RcXo5JvEhgY80r-1" value="WS_SENDER" style="rounded=1;whiteSpace=wrap;html=1;fontStyle=1" parent="1" vertex="1">
          <mxGeometry x="-183" y="-210" width="120" height="60" as="geometry" />
        </mxCell>
        <mxCell id="v1lEg4RcXo5JvEhgY80r-2" value="" style="endArrow=classic;html=1;rounded=0;fontSize=12;startSize=8;endSize=8;curved=1;entryX=0.5;entryY=0;entryDx=0;entryDy=0;exitX=0.505;exitY=0.933;exitDx=0;exitDy=0;exitPerimeter=0;" parent="1" source="v1lEg4RcXo5JvEhgY80r-3" target="v1lEg4RcXo5JvEhgY80r-1" edge="1">
          <mxGeometry width="50" height="50" relative="1" as="geometry">
            <mxPoint x="-123" y="-230" as="sourcePoint" />
            <mxPoint x="-118" y="-251" as="targetPoint" />
          </mxGeometry>
        </mxCell>
        <mxCell id="v1lEg4RcXo5JvEhgY80r-3" value="Message" style="text;html=1;align=center;verticalAlign=middle;whiteSpace=wrap;rounded=0;fontSize=16;" parent="1" vertex="1">
          <mxGeometry x="-158.5" y="-263" width="71" height="30" as="geometry" />
        </mxCell>
        <mxCell id="v1lEg4RcXo5JvEhgY80r-4" value="S3 FIEL" style="shape=cylinder3;whiteSpace=wrap;html=1;boundedLbl=1;backgroundOutline=1;size=15;fontStyle=2" parent="1" vertex="1">
          <mxGeometry x="-363" y="-113" width="60" height="80" as="geometry" />
        </mxCell>
        <mxCell id="v1lEg4RcXo5JvEhgY80r-5" value="BD" style="shape=cylinder3;whiteSpace=wrap;html=1;boundedLbl=1;backgroundOutline=1;size=15;fontStyle=2" parent="1" vertex="1">
          <mxGeometry x="-363" y="148" width="60" height="80" as="geometry" />
        </mxCell>
        <mxCell id="v1lEg4RcXo5JvEhgY80r-12" value="" style="edgeStyle=elbowEdgeStyle;elbow=horizontal;endArrow=classic;html=1;curved=0;rounded=0;endSize=8;startSize=8;fontSize=12;exitX=0.5;exitY=1;exitDx=0;exitDy=0;entryX=1;entryY=0;entryDx=0;entryDy=27.5;entryPerimeter=0;strokeColor=#FF00FF;" parent="1" source="v1lEg4RcXo5JvEhgY80r-1" target="v1lEg4RcXo5JvEhgY80r-5" edge="1">
          <mxGeometry width="50" height="50" relative="1" as="geometry">
            <mxPoint x="-45" y="39" as="sourcePoint" />
            <mxPoint x="5" y="-11" as="targetPoint" />
            <Array as="points">
              <mxPoint x="-123" y="-50" />
            </Array>
          </mxGeometry>
        </mxCell>
        <mxCell id="v1lEg4RcXo5JvEhgY80r-13" value="create_query" style="text;html=1;align=center;verticalAlign=middle;whiteSpace=wrap;rounded=0;fontSize=16;" parent="1" vertex="1">
          <mxGeometry x="-270" y="143" width="103" height="30" as="geometry" />
        </mxCell>
        <mxCell id="v1lEg4RcXo5JvEhgY80r-14" value="" style="edgeStyle=elbowEdgeStyle;elbow=horizontal;endArrow=classic;html=1;curved=0;rounded=0;endSize=8;startSize=8;fontSize=12;entryX=1;entryY=0;entryDx=0;entryDy=27.5;entryPerimeter=0;strokeColor=#FF9933;strokeWidth=2;" parent="1" target="v1lEg4RcXo5JvEhgY80r-4" edge="1">
          <mxGeometry width="50" height="50" relative="1" as="geometry">
            <mxPoint x="-137" y="-150" as="sourcePoint" />
            <mxPoint x="5" y="-11" as="targetPoint" />
            <Array as="points">
              <mxPoint x="-137" y="-90" />
            </Array>
          </mxGeometry>
        </mxCell>
        <mxCell id="v1lEg4RcXo5JvEhgY80r-15" value="cid, wid" style="text;html=1;align=center;verticalAlign=middle;whiteSpace=wrap;rounded=0;fontSize=16;" parent="1" vertex="1">
          <mxGeometry x="-363" y="-150" width="60" height="30" as="geometry" />
        </mxCell>
        <mxCell id="v1lEg4RcXo5JvEhgY80r-16" value="WS_UPDATER" style="rounded=1;whiteSpace=wrap;html=1;fontStyle=1" parent="1" vertex="1">
          <mxGeometry x="15" y="25" width="120" height="60" as="geometry" />
        </mxCell>
        <mxCell id="v1lEg4RcXo5JvEhgY80r-17" value="" style="edgeStyle=elbowEdgeStyle;elbow=horizontal;endArrow=classic;html=1;curved=0;rounded=0;endSize=8;startSize=8;fontSize=12;entryX=0;entryY=0.25;entryDx=0;entryDy=0;exitX=0.61;exitY=1.026;exitDx=0;exitDy=0;exitPerimeter=0;strokeColor=#33FF33;strokeWidth=2;" parent="1" source="v1lEg4RcXo5JvEhgY80r-1" target="v1lEg4RcXo5JvEhgY80r-16" edge="1">
          <mxGeometry width="50" height="50" relative="1" as="geometry">
            <mxPoint x="-101" y="-127" as="sourcePoint" />
            <mxPoint x="73" as="targetPoint" />
            <Array as="points">
              <mxPoint x="-110" y="-70" />
            </Array>
          </mxGeometry>
        </mxCell>
        <mxCell id="v1lEg4RcXo5JvEhgY80r-18" value="" style="edgeStyle=elbowEdgeStyle;elbow=horizontal;endArrow=classic;html=1;curved=0;rounded=0;endSize=8;startSize=8;fontSize=12;exitX=0.5;exitY=1;exitDx=0;exitDy=0;entryX=1;entryY=0;entryDx=0;entryDy=52.5;entryPerimeter=0;strokeColor=#33FF33;strokeWidth=2;" parent="1" source="v1lEg4RcXo5JvEhgY80r-16" target="v1lEg4RcXo5JvEhgY80r-5" edge="1">
          <mxGeometry width="50" height="50" relative="1" as="geometry">
            <mxPoint x="23" y="50" as="sourcePoint" />
            <mxPoint x="73" as="targetPoint" />
            <Array as="points">
              <mxPoint x="75" y="141" />
            </Array>
          </mxGeometry>
        </mxCell>
        <mxCell id="v1lEg4RcXo5JvEhgY80r-19" value="WS_VERIFIER" style="rounded=1;whiteSpace=wrap;html=1;fontStyle=1" parent="1" vertex="1">
          <mxGeometry x="15" y="-210" width="120" height="60" as="geometry" />
        </mxCell>
        <mxCell id="v1lEg4RcXo5JvEhgY80r-20" value="" style="endArrow=classic;html=1;rounded=0;fontSize=12;startSize=8;endSize=8;curved=1;entryX=0.5;entryY=0;entryDx=0;entryDy=0;exitX=0.505;exitY=0.933;exitDx=0;exitDy=0;exitPerimeter=0;" parent="1" edge="1">
          <mxGeometry width="50" height="50" relative="1" as="geometry">
            <mxPoint x="74.83000000000001" y="-235" as="sourcePoint" />
            <mxPoint x="74.83000000000001" y="-210" as="targetPoint" />
          </mxGeometry>
        </mxCell>
        <mxCell id="v1lEg4RcXo5JvEhgY80r-21" value="Message" style="text;html=1;align=center;verticalAlign=middle;whiteSpace=wrap;rounded=0;fontSize=16;" parent="1" vertex="1">
          <mxGeometry x="39.5" y="-263" width="71" height="30" as="geometry" />
        </mxCell>
        <mxCell id="v1lEg4RcXo5JvEhgY80r-23" value="sat_connector" style="text;html=1;align=center;verticalAlign=middle;whiteSpace=wrap;rounded=0;fontSize=16;" parent="1" vertex="1">
          <mxGeometry x="-387.75" y="-175" width="109.5" height="30" as="geometry" />
        </mxCell>
        <mxCell id="v1lEg4RcXo5JvEhgY80r-24" value="" style="edgeStyle=elbowEdgeStyle;elbow=horizontal;endArrow=classic;html=1;curved=0;rounded=0;endSize=8;startSize=8;fontSize=12;exitX=0.5;exitY=1;exitDx=0;exitDy=0;entryX=0.5;entryY=0;entryDx=0;entryDy=0;strokeColor=#33FF33;strokeWidth=2;" parent="1" source="v1lEg4RcXo5JvEhgY80r-19" target="v1lEg4RcXo5JvEhgY80r-16" edge="1">
          <mxGeometry width="50" height="50" relative="1" as="geometry">
            <mxPoint x="101" y="35" as="sourcePoint" />
            <mxPoint x="151" y="-15" as="targetPoint" />
            <Array as="points">
              <mxPoint x="75" y="-61" />
            </Array>
          </mxGeometry>
        </mxCell>
        <mxCell id="v1lEg4RcXo5JvEhgY80r-25" value="WS_DOWNLOADER" style="rounded=1;whiteSpace=wrap;html=1;fontStyle=1" parent="1" vertex="1">
          <mxGeometry x="213" y="-210" width="120" height="60" as="geometry" />
        </mxCell>
        <mxCell id="v1lEg4RcXo5JvEhgY80r-26" value="" style="endArrow=classic;html=1;rounded=0;fontSize=12;startSize=8;endSize=8;curved=1;entryX=0.5;entryY=0;entryDx=0;entryDy=0;exitX=0.505;exitY=0.933;exitDx=0;exitDy=0;exitPerimeter=0;" parent="1" edge="1">
          <mxGeometry width="50" height="50" relative="1" as="geometry">
            <mxPoint x="272.83000000000004" y="-235" as="sourcePoint" />
            <mxPoint x="272.83000000000004" y="-210" as="targetPoint" />
          </mxGeometry>
        </mxCell>
        <mxCell id="v1lEg4RcXo5JvEhgY80r-27" value="Message" style="text;html=1;align=center;verticalAlign=middle;whiteSpace=wrap;rounded=0;fontSize=16;" parent="1" vertex="1">
          <mxGeometry x="237.5" y="-263" width="71" height="30" as="geometry" />
        </mxCell>
        <mxCell id="v1lEg4RcXo5JvEhgY80r-28" value="" style="edgeStyle=elbowEdgeStyle;elbow=horizontal;endArrow=classic;html=1;curved=0;rounded=0;endSize=8;startSize=8;fontSize=12;exitX=0.5;exitY=1;exitDx=0;exitDy=0;entryX=1;entryY=0.25;entryDx=0;entryDy=0;strokeColor=#33FF33;strokeWidth=2;" parent="1" source="v1lEg4RcXo5JvEhgY80r-25" target="v1lEg4RcXo5JvEhgY80r-16" edge="1">
          <mxGeometry width="50" height="50" relative="1" as="geometry">
            <mxPoint x="72" y="-12" as="sourcePoint" />
            <mxPoint x="122" y="-62" as="targetPoint" />
            <Array as="points">
              <mxPoint x="271" y="-56" />
            </Array>
          </mxGeometry>
        </mxCell>
        <mxCell id="v1lEg4RcXo5JvEhgY80r-29" value="" style="edgeStyle=segmentEdgeStyle;endArrow=classic;html=1;curved=0;rounded=0;endSize=8;startSize=8;fontSize=12;exitX=0.25;exitY=1;exitDx=0;exitDy=0;strokeColor=#FF9933;strokeWidth=2;" parent="1" source="v1lEg4RcXo5JvEhgY80r-19" edge="1">
          <mxGeometry width="50" height="50" relative="1" as="geometry">
            <mxPoint x="72" y="-12" as="sourcePoint" />
            <mxPoint x="-303" y="-71" as="targetPoint" />
            <Array as="points">
              <mxPoint x="43" y="-150" />
              <mxPoint x="43" y="-71" />
              <mxPoint x="-303" y="-71" />
            </Array>
          </mxGeometry>
        </mxCell>
        <mxCell id="v1lEg4RcXo5JvEhgY80r-30" value="" style="edgeStyle=segmentEdgeStyle;endArrow=classic;html=1;curved=0;rounded=0;endSize=8;startSize=8;fontSize=12;exitX=0.25;exitY=1;exitDx=0;exitDy=0;entryX=1;entryY=1;entryDx=0;entryDy=-15;entryPerimeter=0;strokeColor=#FF9933;strokeWidth=2;" parent="1" source="v1lEg4RcXo5JvEhgY80r-25" target="v1lEg4RcXo5JvEhgY80r-4" edge="1">
          <mxGeometry width="50" height="50" relative="1" as="geometry">
            <mxPoint x="55" y="-140" as="sourcePoint" />
            <mxPoint x="-293" y="-50" as="targetPoint" />
            <Array as="points">
              <mxPoint x="243" y="-48" />
            </Array>
          </mxGeometry>
        </mxCell>
        <mxCell id="v1lEg4RcXo5JvEhgY80r-31" value="S3 PACKAGE" style="shape=cylinder3;whiteSpace=wrap;html=1;boundedLbl=1;backgroundOutline=1;size=15;fontSize=11;fontStyle=2" parent="1" vertex="1">
          <mxGeometry x="-363" y="15" width="60" height="80" as="geometry" />
        </mxCell>
        <mxCell id="v1lEg4RcXo5JvEhgY80r-32" value="" style="edgeStyle=segmentEdgeStyle;endArrow=classic;html=1;curved=0;rounded=0;endSize=8;startSize=8;fontSize=12;exitX=0.75;exitY=1;exitDx=0;exitDy=0;entryX=1;entryY=0;entryDx=0;entryDy=52.5;entryPerimeter=0;strokeColor=#007FFF;strokeWidth=1;" parent="1" source="v1lEg4RcXo5JvEhgY80r-25" target="v1lEg4RcXo5JvEhgY80r-31" edge="1">
          <mxGeometry width="50" height="50" relative="1" as="geometry">
            <mxPoint x="72" y="-12" as="sourcePoint" />
            <mxPoint x="122" y="-62" as="targetPoint" />
            <Array as="points">
              <mxPoint x="303" y="3" />
              <mxPoint x="-257" y="3" />
              <mxPoint x="-257" y="68" />
            </Array>
          </mxGeometry>
        </mxCell>
        <mxCell id="v1lEg4RcXo5JvEhgY80r-33" value="Message" style="text;html=1;align=center;verticalAlign=middle;whiteSpace=wrap;rounded=0;fontSize=16;" parent="1" vertex="1">
          <mxGeometry x="-79" y="13" width="71" height="30" as="geometry" />
        </mxCell>
        <mxCell id="v1lEg4RcXo5JvEhgY80r-34" value="Message" style="text;html=1;align=center;verticalAlign=middle;whiteSpace=wrap;rounded=0;fontSize=16;" parent="1" vertex="1">
          <mxGeometry x="43" y="-44" width="71" height="30" as="geometry" />
        </mxCell>
        <mxCell id="v1lEg4RcXo5JvEhgY80r-35" value="Message" style="text;html=1;align=center;verticalAlign=middle;whiteSpace=wrap;rounded=0;fontSize=16;" parent="1" vertex="1">
          <mxGeometry x="174" y="13" width="71" height="30" as="geometry" />
        </mxCell>
        <mxCell id="v1lEg4RcXo5JvEhgY80r-36" value="package_repo" style="text;html=1;align=center;verticalAlign=middle;whiteSpace=wrap;rounded=0;fontSize=16;" parent="1" vertex="1">
          <mxGeometry x="-387.75" y="-20" width="109.5" height="30" as="geometry" />
        </mxCell>
        <mxCell id="v1lEg4RcXo5JvEhgY80r-38" value="" style="edgeStyle=segmentEdgeStyle;endArrow=classic;html=1;curved=0;rounded=0;endSize=8;startSize=8;fontSize=12;exitX=0.75;exitY=1;exitDx=0;exitDy=0;dashed=1;strokeColor=#BABABA;" parent="1" source="v1lEg4RcXo5JvEhgY80r-19" target="v1lEg4RcXo5JvEhgY80r-39" edge="1">
          <mxGeometry width="50" height="50" relative="1" as="geometry">
            <mxPoint x="72" y="-12" as="sourcePoint" />
            <mxPoint x="401" y="-69" as="targetPoint" />
            <Array as="points">
              <mxPoint x="103" y="-150" />
              <mxPoint x="103" y="-62" />
            </Array>
          </mxGeometry>
        </mxCell>
        <mxCell id="v1lEg4RcXo5JvEhgY80r-39" value="Sólo se manda el &quot;tick&quot; cuando el estatus es un estado final* o cuando el estatus es diferente al estatus inicial&amp;nbsp;&lt;div&gt;&lt;br&gt;&lt;/div&gt;&lt;div&gt;anteriormente solo cuando el estatus era diferente al estatus inicial&lt;/div&gt;" style="text;html=1;align=center;verticalAlign=middle;whiteSpace=wrap;rounded=0;fontSize=12;fontColor=#BABABA;" parent="1" vertex="1">
          <mxGeometry x="394" y="-112" width="261" height="98" as="geometry" />
        </mxCell>
        <mxCell id="v1lEg4RcXo5JvEhgY80r-42" value="&lt;div style=&quot;forced-color-adjust: none; color: rgb(204, 204, 204); font-family: Consolas, &amp;quot;Courier New&amp;quot;, monospace; font-size: 14px; font-style: normal; font-variant-ligatures: normal; font-variant-caps: normal; font-weight: 400; letter-spacing: normal; orphans: 2; text-indent: 0px; text-transform: none; widows: 2; word-spacing: 0px; -webkit-text-stroke-width: 0px; white-space: pre; text-decoration-thickness: initial; text-decoration-style: initial; text-decoration-color: initial;&quot;&gt;&lt;span style=&quot;forced-color-adjust: none; color: rgb(156, 220, 254);&quot;&gt;        final_states&lt;/span&gt;&lt;span style=&quot;forced-color-adjust: none; color: rgb(204, 204, 204);&quot;&gt; &lt;/span&gt;&lt;span style=&quot;forced-color-adjust: none; color: rgb(212, 212, 212);&quot;&gt;=&lt;/span&gt;&lt;span style=&quot;forced-color-adjust: none; color: rgb(204, 204, 204);&quot;&gt; {&lt;/span&gt;&lt;/div&gt;&lt;div style=&quot;forced-color-adjust: none; color: rgb(204, 204, 204); font-family: Consolas, &amp;quot;Courier New&amp;quot;, monospace; font-size: 14px; font-style: normal; font-variant-ligatures: normal; font-variant-caps: normal; font-weight: 400; letter-spacing: normal; orphans: 2; text-indent: 0px; text-transform: none; widows: 2; word-spacing: 0px; -webkit-text-stroke-width: 0px; white-space: pre; text-decoration-thickness: initial; text-decoration-style: initial; text-decoration-color: initial;&quot;&gt;&lt;span style=&quot;forced-color-adjust: none; color: rgb(204, 204, 204);&quot;&gt;&amp;nbsp; &amp;nbsp; &amp;nbsp; &amp;nbsp; &amp;nbsp; &amp;nbsp; &lt;/span&gt;&lt;span style=&quot;forced-color-adjust: none; color: rgb(78, 201, 176);&quot;&gt;QueryState&lt;/span&gt;&lt;span style=&quot;forced-color-adjust: none; color: rgb(204, 204, 204);&quot;&gt;.&lt;/span&gt;&lt;span style=&quot;forced-color-adjust: none; color: rgb(79, 193, 255);&quot;&gt;TO_DOWNLOAD&lt;/span&gt;&lt;span style=&quot;forced-color-adjust: none; color: rgb(204, 204, 204);&quot;&gt;, &amp;nbsp;&lt;/span&gt;&lt;span style=&quot;forced-color-adjust: none; color: rgb(106, 153, 85);&quot;&gt;# éxito&lt;/span&gt;&lt;/div&gt;&lt;div style=&quot;forced-color-adjust: none; color: rgb(204, 204, 204); font-family: Consolas, &amp;quot;Courier New&amp;quot;, monospace; font-size: 14px; font-style: normal; font-variant-ligatures: normal; font-variant-caps: normal; font-weight: 400; letter-spacing: normal; orphans: 2; text-indent: 0px; text-transform: none; widows: 2; word-spacing: 0px; -webkit-text-stroke-width: 0px; white-space: pre; text-decoration-thickness: initial; text-decoration-style: initial; text-decoration-color: initial;&quot;&gt;&lt;span style=&quot;forced-color-adjust: none; color: rgb(204, 204, 204);&quot;&gt;&amp;nbsp; &amp;nbsp; &amp;nbsp; &amp;nbsp; &amp;nbsp; &amp;nbsp; &lt;/span&gt;&lt;span style=&quot;forced-color-adjust: none; color: rgb(78, 201, 176);&quot;&gt;QueryState&lt;/span&gt;&lt;span style=&quot;forced-color-adjust: none; color: rgb(204, 204, 204);&quot;&gt;.&lt;/span&gt;&lt;span style=&quot;forced-color-adjust: none; color: rgb(79, 193, 255);&quot;&gt;MANUALLY_CANCELLED&lt;/span&gt;&lt;span style=&quot;forced-color-adjust: none; color: rgb(204, 204, 204);&quot;&gt;, &amp;nbsp;&lt;/span&gt;&lt;span style=&quot;forced-color-adjust: none; color: rgb(106, 153, 85);&quot;&gt;# error/cancelado&lt;/span&gt;&lt;/div&gt;&lt;div style=&quot;forced-color-adjust: none; color: rgb(204, 204, 204); font-family: Consolas, &amp;quot;Courier New&amp;quot;, monospace; font-size: 14px; font-style: normal; font-variant-ligatures: normal; font-variant-caps: normal; font-weight: 400; letter-spacing: normal; orphans: 2; text-indent: 0px; text-transform: none; widows: 2; word-spacing: 0px; -webkit-text-stroke-width: 0px; white-space: pre; text-decoration-thickness: initial; text-decoration-style: initial; text-decoration-color: initial;&quot;&gt;&lt;span style=&quot;forced-color-adjust: none; color: rgb(204, 204, 204);&quot;&gt;&amp;nbsp; &amp;nbsp; &amp;nbsp; &amp;nbsp; &amp;nbsp; &amp;nbsp; &lt;/span&gt;&lt;span style=&quot;forced-color-adjust: none; color: rgb(78, 201, 176);&quot;&gt;QueryState&lt;/span&gt;&lt;span style=&quot;forced-color-adjust: none; color: rgb(204, 204, 204);&quot;&gt;.&lt;/span&gt;&lt;span style=&quot;forced-color-adjust: none; color: rgb(79, 193, 255);&quot;&gt;TIME_LIMIT_REACHED&lt;/span&gt;&lt;span style=&quot;forced-color-adjust: none; color: rgb(204, 204, 204);&quot;&gt;, &amp;nbsp;&lt;/span&gt;&lt;span style=&quot;forced-color-adjust: none; color: rgb(106, 153, 85);&quot;&gt;# error/timeout&lt;/span&gt;&lt;/div&gt;&lt;div style=&quot;forced-color-adjust: none; color: rgb(204, 204, 204); font-family: Consolas, &amp;quot;Courier New&amp;quot;, monospace; font-size: 14px; font-style: normal; font-variant-ligatures: normal; font-variant-caps: normal; font-weight: 400; letter-spacing: normal; orphans: 2; text-indent: 0px; text-transform: none; widows: 2; word-spacing: 0px; -webkit-text-stroke-width: 0px; white-space: pre; text-decoration-thickness: initial; text-decoration-style: initial; text-decoration-color: initial;&quot;&gt;&lt;span style=&quot;forced-color-adjust: none; color: rgb(204, 204, 204);&quot;&gt;&amp;nbsp; &amp;nbsp; &amp;nbsp; &amp;nbsp; &amp;nbsp; &amp;nbsp; &lt;/span&gt;&lt;span style=&quot;forced-color-adjust: none; color: rgb(78, 201, 176);&quot;&gt;QueryState&lt;/span&gt;&lt;span style=&quot;forced-color-adjust: none; color: rgb(204, 204, 204);&quot;&gt;.&lt;/span&gt;&lt;span style=&quot;forced-color-adjust: none; color: rgb(79, 193, 255);&quot;&gt;SUBSTITUTED&lt;/span&gt;&lt;span style=&quot;forced-color-adjust: none; color: rgb(204, 204, 204);&quot;&gt;, &amp;nbsp;&lt;/span&gt;&lt;span style=&quot;forced-color-adjust: none; color: rgb(106, 153, 85);&quot;&gt;# error/necesita recrear&lt;/span&gt;&lt;/div&gt;&lt;div style=&quot;forced-color-adjust: none; color: rgb(204, 204, 204); font-family: Consolas, &amp;quot;Courier New&amp;quot;, monospace; font-size: 14px; font-style: normal; font-variant-ligatures: normal; font-variant-caps: normal; font-weight: 400; letter-spacing: normal; orphans: 2; text-indent: 0px; text-transform: none; widows: 2; word-spacing: 0px; -webkit-text-stroke-width: 0px; white-space: pre; text-decoration-thickness: initial; text-decoration-style: initial; text-decoration-color: initial;&quot;&gt;&lt;span style=&quot;forced-color-adjust: none; color: rgb(204, 204, 204);&quot;&gt;&amp;nbsp; &amp;nbsp; &amp;nbsp; &amp;nbsp; &amp;nbsp; &amp;nbsp; &lt;/span&gt;&lt;span style=&quot;forced-color-adjust: none; color: rgb(78, 201, 176);&quot;&gt;QueryState&lt;/span&gt;&lt;span style=&quot;forced-color-adjust: none; color: rgb(204, 204, 204);&quot;&gt;.&lt;/span&gt;&lt;span style=&quot;forced-color-adjust: none; color: rgb(79, 193, 255);&quot;&gt;INFORMATION_NOT_FOUND&lt;/span&gt;&lt;span style=&quot;forced-color-adjust: none; color: rgb(204, 204, 204);&quot;&gt;, &amp;nbsp;&lt;/span&gt;&lt;span style=&quot;forced-color-adjust: none; color: rgb(106, 153, 85);&quot;&gt;# error/no data&lt;/span&gt;&lt;/div&gt;&lt;div style=&quot;forced-color-adjust: none; color: rgb(204, 204, 204); font-family: Consolas, &amp;quot;Courier New&amp;quot;, monospace; font-size: 14px; font-style: normal; font-variant-ligatures: normal; font-variant-caps: normal; font-weight: 400; letter-spacing: normal; orphans: 2; text-indent: 0px; text-transform: none; widows: 2; word-spacing: 0px; -webkit-text-stroke-width: 0px; white-space: pre; text-decoration-thickness: initial; text-decoration-style: initial; text-decoration-color: initial;&quot;&gt;&lt;span style=&quot;forced-color-adjust: none; color: rgb(204, 204, 204);&quot;&gt;&amp;nbsp; &amp;nbsp; &amp;nbsp; &amp;nbsp; &amp;nbsp; &amp;nbsp; &lt;/span&gt;&lt;span style=&quot;forced-color-adjust: none; color: rgb(78, 201, 176);&quot;&gt;QueryState&lt;/span&gt;&lt;span style=&quot;forced-color-adjust: none; color: rgb(204, 204, 204);&quot;&gt;.&lt;/span&gt;&lt;span style=&quot;forced-color-adjust: none; color: rgb(79, 193, 255);&quot;&gt;ERROR_TOO_BIG&lt;/span&gt;&lt;span style=&quot;forced-color-adjust: none; color: rgb(204, 204, 204);&quot;&gt;, &amp;nbsp;&lt;/span&gt;&lt;span style=&quot;forced-color-adjust: none; color: rgb(106, 153, 85);&quot;&gt;# error/muy grande&lt;/span&gt;&lt;/div&gt;&lt;div style=&quot;forced-color-adjust: none; color: rgb(204, 204, 204); font-family: Consolas, &amp;quot;Courier New&amp;quot;, monospace; font-size: 14px; font-style: normal; font-variant-ligatures: normal; font-variant-caps: normal; font-weight: 400; letter-spacing: normal; orphans: 2; text-indent: 0px; text-transform: none; widows: 2; word-spacing: 0px; -webkit-text-stroke-width: 0px; white-space: pre; text-decoration-thickness: initial; text-decoration-style: initial; text-decoration-color: initial;&quot;&gt;&lt;span style=&quot;forced-color-adjust: none; color: rgb(204, 204, 204);&quot;&gt;&amp;nbsp; &amp;nbsp; &amp;nbsp; &amp;nbsp; &amp;nbsp; &amp;nbsp; &lt;/span&gt;&lt;span style=&quot;forced-color-adjust: none; color: rgb(78, 201, 176);&quot;&gt;QueryState&lt;/span&gt;&lt;span style=&quot;forced-color-adjust: none; color: rgb(204, 204, 204);&quot;&gt;.&lt;/span&gt;&lt;span style=&quot;forced-color-adjust: none; color: rgb(79, 193, 255);&quot;&gt;SPLITTED&lt;/span&gt;&lt;span style=&quot;forced-color-adjust: none; color: rgb(204, 204, 204);&quot;&gt;, &amp;nbsp;&lt;/span&gt;&lt;span style=&quot;forced-color-adjust: none; color: rgb(106, 153, 85);&quot;&gt;# éxito/dividido&lt;/span&gt;&lt;/div&gt;&lt;div style=&quot;forced-color-adjust: none; color: rgb(204, 204, 204); font-family: Consolas, &amp;quot;Courier New&amp;quot;, monospace; font-size: 14px; font-style: normal; font-variant-ligatures: normal; font-variant-caps: normal; font-weight: 400; letter-spacing: normal; orphans: 2; text-indent: 0px; text-transform: none; widows: 2; word-spacing: 0px; -webkit-text-stroke-width: 0px; white-space: pre; text-decoration-thickness: initial; text-decoration-style: initial; text-decoration-color: initial;&quot;&gt;&lt;span style=&quot;forced-color-adjust: none; color: rgb(204, 204, 204);&quot;&gt;&amp;nbsp; &amp;nbsp; &amp;nbsp; &amp;nbsp; &amp;nbsp; &amp;nbsp; &lt;/span&gt;&lt;span style=&quot;forced-color-adjust: none; color: rgb(78, 201, 176);&quot;&gt;QueryState&lt;/span&gt;&lt;span style=&quot;forced-color-adjust: none; color: rgb(204, 204, 204);&quot;&gt;.&lt;/span&gt;&lt;span style=&quot;forced-color-adjust: none; color: rgb(79, 193, 255);&quot;&gt;ERROR&lt;/span&gt;&lt;span style=&quot;forced-color-adjust: none; color: rgb(204, 204, 204);&quot;&gt;, &amp;nbsp;&lt;/span&gt;&lt;span style=&quot;forced-color-adjust: none; color: rgb(106, 153, 85);&quot;&gt;# error genérico&lt;/span&gt;&lt;/div&gt;&lt;div style=&quot;forced-color-adjust: none; color: rgb(204, 204, 204); font-family: Consolas, &amp;quot;Courier New&amp;quot;, monospace; font-size: 14px; font-style: normal; font-variant-ligatures: normal; font-variant-caps: normal; font-weight: 400; letter-spacing: normal; orphans: 2; text-indent: 0px; text-transform: none; widows: 2; word-spacing: 0px; -webkit-text-stroke-width: 0px; white-space: pre; text-decoration-thickness: initial; text-decoration-style: initial; text-decoration-color: initial;&quot;&gt;&lt;span style=&quot;forced-color-adjust: none; color: rgb(204, 204, 204);&quot;&gt;&amp;nbsp; &amp;nbsp; &amp;nbsp; &amp;nbsp; }&lt;/span&gt;&lt;/div&gt;" style="text;whiteSpace=wrap;html=1;fillColor=#f5f5f5;strokeColor=#666666;fontColor=#333333;align=left;verticalAlign=middle;" parent="1" vertex="1">
          <mxGeometry x="406" y="-6" width="495" height="220" as="geometry" />
        </mxCell>
        <mxCell id="v1lEg4RcXo5JvEhgY80r-43" value="" style="edgeStyle=segmentEdgeStyle;endArrow=classic;html=1;curved=0;rounded=0;endSize=8;startSize=8;fontSize=12;exitX=1;exitY=0.5;exitDx=0;exitDy=0;dashed=1;strokeColor=#BABABA;entryX=0;entryY=0.5;entryDx=0;entryDy=0;" parent="1" source="v1lEg4RcXo5JvEhgY80r-1" target="v1lEg4RcXo5JvEhgY80r-19" edge="1">
          <mxGeometry width="50" height="50" relative="1" as="geometry">
            <mxPoint x="115" y="-140" as="sourcePoint" />
            <mxPoint x="404" y="-52" as="targetPoint" />
            <Array as="points">
              <mxPoint x="-4" y="-180" />
              <mxPoint x="-4" y="-180" />
            </Array>
          </mxGeometry>
        </mxCell>
        <mxCell id="v1lEg4RcXo5JvEhgY80r-46" value="&lt;span style=&quot;color: rgb(79, 193, 255); font-family: Consolas, &amp;quot;Courier New&amp;quot;, monospace; white-space: pre;&quot;&gt;SAT_WS_QUERY_SENT&lt;/span&gt;" style="text;whiteSpace=wrap;html=1;fontSize=7;" parent="1" vertex="1">
          <mxGeometry x="-62.5" y="-228" width="77.5" height="22" as="geometry" />
        </mxCell>
        <mxCell id="v1lEg4RcXo5JvEhgY80r-47" value="" style="edgeStyle=segmentEdgeStyle;endArrow=classic;html=1;curved=0;rounded=0;endSize=8;startSize=8;fontSize=12;exitX=1;exitY=0.5;exitDx=0;exitDy=0;dashed=1;strokeColor=#BABABA;entryX=0;entryY=0.5;entryDx=0;entryDy=0;" parent="1" edge="1">
          <mxGeometry width="50" height="50" relative="1" as="geometry">
            <mxPoint x="135" y="-180" as="sourcePoint" />
            <mxPoint x="213" y="-180" as="targetPoint" />
            <Array as="points">
              <mxPoint x="194" y="-180" />
              <mxPoint x="194" y="-180" />
            </Array>
          </mxGeometry>
        </mxCell>
        <mxCell id="v1lEg4RcXo5JvEhgY80r-48" value="&lt;font color=&quot;#4fc1ff&quot; face=&quot;Consolas, Courier New, monospace&quot;&gt;&lt;span style=&quot;white-space: pre;&quot;&gt;SAT_WS_QUERY_DOWNLOAD_READY&lt;/span&gt;&lt;/font&gt;" style="text;whiteSpace=wrap;html=1;fontSize=7;align=center;" parent="1" vertex="1">
          <mxGeometry x="138" y="-228" width="77.5" height="22" as="geometry" />
        </mxCell>
        <mxCell id="v1lEg4RcXo5JvEhgY80r-49" value="&lt;span style=&quot;color: rgb(79, 193, 255); font-family: Consolas, &amp;quot;Courier New&amp;quot;, monospace; white-space: pre;&quot;&gt;WS_UPDATER&lt;/span&gt;" style="text;whiteSpace=wrap;html=1;fontSize=7;align=center;" parent="1" vertex="1">
          <mxGeometry x="-82.25" y="37" width="77.5" height="22" as="geometry" />
        </mxCell>
        <mxCell id="v1lEg4RcXo5JvEhgY80r-50" value="&lt;span style=&quot;color: rgb(79, 193, 255); font-family: Consolas, &amp;quot;Courier New&amp;quot;, monospace; white-space: pre;&quot;&gt;WS_UPDATER&lt;/span&gt;" style="text;whiteSpace=wrap;html=1;fontSize=7;align=center;" parent="1" vertex="1">
          <mxGeometry x="36.5" y="-20" width="77.5" height="22" as="geometry" />
        </mxCell>
        <mxCell id="v1lEg4RcXo5JvEhgY80r-51" value="&lt;span style=&quot;color: rgb(79, 193, 255); font-family: Consolas, &amp;quot;Courier New&amp;quot;, monospace; white-space: pre;&quot;&gt;WS_UPDATER&lt;/span&gt;" style="text;whiteSpace=wrap;html=1;fontSize=7;align=center;" parent="1" vertex="1">
          <mxGeometry x="170.75" y="37" width="77.5" height="22" as="geometry" />
        </mxCell>
        <mxCell id="v1lEg4RcXo5JvEhgY80r-52" value="" style="edgeStyle=segmentEdgeStyle;endArrow=classic;html=1;curved=0;rounded=0;endSize=8;startSize=8;fontSize=12;dashed=1;strokeColor=#BABABA;entryX=0;entryY=0.5;entryDx=0;entryDy=0;exitX=1;exitY=0.5;exitDx=0;exitDy=0;" parent="1" source="v1lEg4RcXo5JvEhgY80r-53" target="v1lEg4RcXo5JvEhgY80r-1" edge="1">
          <mxGeometry width="50" height="50" relative="1" as="geometry">
            <mxPoint x="-455" y="-299" as="sourcePoint" />
            <mxPoint x="25" y="-170" as="targetPoint" />
            <Array as="points">
              <mxPoint x="-247" y="-299" />
              <mxPoint x="-247" y="-180" />
            </Array>
          </mxGeometry>
        </mxCell>
        <mxCell id="v1lEg4RcXo5JvEhgY80r-53" value="&lt;span style=&quot;color: rgb(186, 186, 186); font-family: Helvetica; font-size: 12px; font-style: normal; font-variant-ligatures: normal; font-variant-caps: normal; font-weight: 400; letter-spacing: normal; orphans: 2; text-align: center; text-indent: 0px; text-transform: none; widows: 2; word-spacing: 0px; -webkit-text-stroke-width: 0px; white-space: normal; background-color: rgb(255, 255, 255); text-decoration-thickness: initial; text-decoration-style: initial; text-decoration-color: initial; display: inline !important; float: none;&quot;&gt;METADATA | XML&lt;/span&gt;" style="text;whiteSpace=wrap;html=1;" parent="1" vertex="1">
          <mxGeometry x="-557" y="-313" width="102" height="28" as="geometry" />
        </mxCell>
        <mxCell id="v1lEg4RcXo5JvEhgY80r-54" value="&lt;span style=&quot;color: rgb(186, 186, 186); font-family: Helvetica; font-size: 12px; font-style: normal; font-variant-ligatures: normal; font-variant-caps: normal; font-weight: 400; letter-spacing: normal; orphans: 2; text-align: center; text-indent: 0px; text-transform: none; widows: 2; word-spacing: 0px; -webkit-text-stroke-width: 0px; white-space: normal; background-color: rgb(255, 255, 255); text-decoration-thickness: initial; text-decoration-style: initial; text-decoration-color: initial; display: inline !important; float: none;&quot;&gt;CRON SYNC_METADATA&lt;/span&gt;" style="text;whiteSpace=wrap;html=1;" parent="1" vertex="1">
          <mxGeometry x="-777" y="-332.5" width="161" height="28" as="geometry" />
        </mxCell>
        <mxCell id="v1lEg4RcXo5JvEhgY80r-55" value="&lt;span style=&quot;color: rgb(186, 186, 186); font-family: Helvetica; font-size: 12px; font-style: normal; font-variant-ligatures: normal; font-variant-caps: normal; font-weight: 400; letter-spacing: normal; orphans: 2; text-align: center; text-indent: 0px; text-transform: none; widows: 2; word-spacing: 0px; -webkit-text-stroke-width: 0px; white-space: normal; background-color: rgb(255, 255, 255); text-decoration-thickness: initial; text-decoration-style: initial; text-decoration-color: initial; display: inline !important; float: none;&quot;&gt;FIRST_COMPANY_CREATE&lt;/span&gt;" style="text;whiteSpace=wrap;html=1;" parent="1" vertex="1">
          <mxGeometry x="-777" y="-293.5" width="161" height="28" as="geometry" />
        </mxCell>
        <mxCell id="v1lEg4RcXo5JvEhgY80r-57" value="&lt;div style=&quot;text-align: center;&quot;&gt;&lt;span style=&quot;background-color: initial;&quot;&gt;&lt;font color=&quot;#bababa&quot;&gt;ISSUED | DATES&lt;/font&gt;&lt;/span&gt;&lt;/div&gt;" style="text;whiteSpace=wrap;html=1;" parent="1" vertex="1">
          <mxGeometry x="-434" y="-328" width="102" height="28" as="geometry" />
        </mxCell>
        <mxCell id="v1lEg4RcXo5JvEhgY80r-58" value="&lt;div style=&quot;&quot;&gt;&lt;span style=&quot;background-color: initial;&quot;&gt;&lt;font color=&quot;#bababa&quot;&gt;5 YEARS MAX&lt;/font&gt;&lt;/span&gt;&lt;/div&gt;" style="text;whiteSpace=wrap;html=1;align=center;" parent="1" vertex="1">
          <mxGeometry x="-434" y="-374" width="102" height="28" as="geometry" />
        </mxCell>
        <mxCell id="v1lEg4RcXo5JvEhgY80r-59" value="15 min max" style="ellipse;shape=umlControl;whiteSpace=wrap;html=1;strokeColor=#CCCCCC;fontColor=#CCCCCC;" parent="1" vertex="1">
          <mxGeometry x="40" y="-343" width="70" height="80" as="geometry" />
        </mxCell>
        <mxCell id="v1lEg4RcXo5JvEhgY80r-60" value="&lt;div style=&quot;&quot;&gt;&lt;font color=&quot;#bababa&quot;&gt;PROD: 15&lt;/font&gt;&lt;/div&gt;&lt;div style=&quot;&quot;&gt;&lt;font color=&quot;#bababa&quot;&gt;QA: 5&lt;/font&gt;&lt;/div&gt;&lt;div style=&quot;&quot;&gt;&lt;font color=&quot;#bababa&quot;&gt;DEV: 1&lt;/font&gt;&lt;/div&gt;" style="text;whiteSpace=wrap;html=1;align=center;" parent="1" vertex="1">
          <mxGeometry x="24.25" y="-409" width="102" height="58" as="geometry" />
        </mxCell>
        <mxCell id="v1lEg4RcXo5JvEhgY80r-61" value="" style="edgeStyle=segmentEdgeStyle;endArrow=classic;html=1;curved=0;rounded=0;endSize=8;startSize=8;fontSize=12;dashed=1;strokeColor=#BABABA;exitX=1;exitY=0.5;exitDx=0;exitDy=0;" parent="1" source="v1lEg4RcXo5JvEhgY80r-25" edge="1">
          <mxGeometry width="50" height="50" relative="1" as="geometry">
            <mxPoint x="-445" y="-289" as="sourcePoint" />
            <mxPoint x="588" y="-289" as="targetPoint" />
            <Array as="points">
              <mxPoint x="384" y="-180" />
              <mxPoint x="384" y="-289" />
            </Array>
          </mxGeometry>
        </mxCell>
        <mxCell id="v1lEg4RcXo5JvEhgY80r-62" value="&lt;div style=&quot;text-align: center;&quot;&gt;&lt;span style=&quot;background-color: initial;&quot;&gt;&lt;font color=&quot;#bababa&quot;&gt;PROCESSORS&lt;/font&gt;&lt;/span&gt;&lt;/div&gt;" style="text;whiteSpace=wrap;html=1;" parent="1" vertex="1">
          <mxGeometry x="595" y="-302" width="102" height="28" as="geometry" />
        </mxCell>
        <mxCell id="v1lEg4RcXo5JvEhgY80r-63" value="&lt;div style=&quot;text-align: center;&quot;&gt;&lt;span style=&quot;background-color: initial;&quot;&gt;&lt;font color=&quot;#bababa&quot;&gt;METADATA&lt;/font&gt;&lt;/span&gt;&lt;/div&gt;" style="text;whiteSpace=wrap;html=1;" parent="1" vertex="1">
          <mxGeometry x="697" y="-321.5" width="79" height="28" as="geometry" />
        </mxCell>
        <mxCell id="v1lEg4RcXo5JvEhgY80r-64" value="&lt;div style=&quot;text-align: center;&quot;&gt;&lt;font color=&quot;#bababa&quot;&gt;CFDI&lt;/font&gt;&lt;/div&gt;" style="text;whiteSpace=wrap;html=1;" parent="1" vertex="1">
          <mxGeometry x="697" y="-285" width="79" height="28" as="geometry" />
        </mxCell>
        <mxCell id="v1lEg4RcXo5JvEhgY80r-65" value="&lt;div&gt;&lt;br&gt;&lt;/div&gt;SAT" style="strokeWidth=2;html=1;shape=mxgraph.flowchart.database;whiteSpace=wrap;" parent="1" vertex="1">
          <mxGeometry x="40.37" y="-565" width="69.25" height="72" as="geometry" />
        </mxCell>
        <mxCell id="v1lEg4RcXo5JvEhgY80r-67" value="" style="edgeStyle=elbowEdgeStyle;elbow=horizontal;endArrow=classic;html=1;curved=0;rounded=0;endSize=8;startSize=8;fontSize=12;entryX=0;entryY=0.85;entryDx=0;entryDy=0;entryPerimeter=0;strokeColor=#FF9933;strokeWidth=2;exitX=0.75;exitY=0;exitDx=0;exitDy=0;" parent="1" source="v1lEg4RcXo5JvEhgY80r-1" target="v1lEg4RcXo5JvEhgY80r-65" edge="1">
          <mxGeometry width="50" height="50" relative="1" as="geometry">
            <mxPoint x="-137" y="-150" as="sourcePoint" />
            <mxPoint x="-303" y="-85" as="targetPoint" />
            <Array as="points">
              <mxPoint x="-77" y="-502" />
            </Array>
          </mxGeometry>
        </mxCell>
        <mxCell id="v1lEg4RcXo5JvEhgY80r-68" value="" style="edgeStyle=elbowEdgeStyle;elbow=horizontal;endArrow=classic;html=1;curved=0;rounded=0;endSize=8;startSize=8;fontSize=12;strokeColor=#FF9933;strokeWidth=2;exitX=0.868;exitY=-0.021;exitDx=0;exitDy=0;exitPerimeter=0;entryX=1.009;entryY=0.705;entryDx=0;entryDy=0;entryPerimeter=0;" parent="1" source="v1lEg4RcXo5JvEhgY80r-19" target="v1lEg4RcXo5JvEhgY80r-65" edge="1">
          <mxGeometry width="50" height="50" relative="1" as="geometry">
            <mxPoint x="118" y="-231" as="sourcePoint" />
            <mxPoint x="60" y="-466" as="targetPoint" />
            <Array as="points">
              <mxPoint x="119" y="-360" />
            </Array>
          </mxGeometry>
        </mxCell>
        <mxCell id="v1lEg4RcXo5JvEhgY80r-69" value="" style="edgeStyle=elbowEdgeStyle;elbow=horizontal;endArrow=classic;html=1;curved=0;rounded=0;endSize=8;startSize=8;fontSize=12;strokeColor=#FF9933;strokeWidth=2;exitX=0.905;exitY=0.005;exitDx=0;exitDy=0;exitPerimeter=0;entryX=1;entryY=0.5;entryDx=0;entryDy=0;entryPerimeter=0;" parent="1" source="v1lEg4RcXo5JvEhgY80r-25" target="v1lEg4RcXo5JvEhgY80r-65" edge="1">
          <mxGeometry width="50" height="50" relative="1" as="geometry">
            <mxPoint x="129" y="-201" as="sourcePoint" />
            <mxPoint x="120" y="-504" as="targetPoint" />
            <Array as="points">
              <mxPoint x="322" y="-337" />
            </Array>
          </mxGeometry>
        </mxCell>
        <mxCell id="v1lEg4RcXo5JvEhgY80r-70" value="" style="edgeStyle=segmentEdgeStyle;endArrow=classic;html=1;curved=0;rounded=0;endSize=8;startSize=8;fontSize=12;exitX=0.75;exitY=1;exitDx=0;exitDy=0;dashed=1;strokeColor=#BABABA;entryX=0.5;entryY=0;entryDx=0;entryDy=0;" parent="1" source="v1lEg4RcXo5JvEhgY80r-16" target="v1lEg4RcXo5JvEhgY80r-71" edge="1">
          <mxGeometry width="50" height="50" relative="1" as="geometry">
            <mxPoint x="115" y="-140" as="sourcePoint" />
            <mxPoint x="238" y="333" as="targetPoint" />
            <Array as="points">
              <mxPoint x="105" y="219" />
              <mxPoint x="234" y="219" />
              <mxPoint x="234" y="292" />
              <mxPoint x="236" y="292" />
            </Array>
          </mxGeometry>
        </mxCell>
        <mxCell id="v1lEg4RcXo5JvEhgY80r-71" value="Para evitar dejar el estatus con un valor &quot;incorrecto&quot; al recibir múltiples peticiones se valida con la fecha en la que fue enviado" style="text;html=1;align=center;verticalAlign=middle;whiteSpace=wrap;rounded=0;fontSize=12;fontColor=#BABABA;" parent="1" vertex="1">
          <mxGeometry x="98" y="317" width="261" height="98" as="geometry" />
        </mxCell>
        <mxCell id="v1lEg4RcXo5JvEhgY80r-74" style="edgeStyle=none;curved=1;rounded=0;orthogonalLoop=1;jettySize=auto;html=1;entryX=0.5;entryY=0;entryDx=0;entryDy=0;fontSize=12;startSize=8;endSize=8;" parent="1" source="v1lEg4RcXo5JvEhgY80r-71" target="v1lEg4RcXo5JvEhgY80r-71" edge="1">
          <mxGeometry relative="1" as="geometry" />
        </mxCell>
        <mxCell id="v1lEg4RcXo5JvEhgY80r-75" value="&lt;div style=&quot;&quot;&gt;&lt;span style=&quot;background-color: initial;&quot;&gt;&lt;font color=&quot;#bababa&quot;&gt;1 MILLON METADATA&lt;/font&gt;&lt;/span&gt;&lt;/div&gt;" style="text;whiteSpace=wrap;html=1;align=center;" parent="1" vertex="1">
          <mxGeometry x="776" y="-368" width="155" height="28" as="geometry" />
        </mxCell>
        <mxCell id="v1lEg4RcXo5JvEhgY80r-77" value="&lt;div style=&quot;&quot;&gt;&lt;span style=&quot;background-color: initial;&quot;&gt;&lt;font color=&quot;#bababa&quot;&gt;200 MIL XML&lt;/font&gt;&lt;/span&gt;&lt;/div&gt;" style="text;whiteSpace=wrap;html=1;align=center;" parent="1" vertex="1">
          <mxGeometry x="776" y="-343" width="155" height="28" as="geometry" />
        </mxCell>
      </root>
    </mxGraphModel>
  </diagram>
  <diagram name="Página-1" id="4m8tSvckUoIENphSRxM1">
    <mxGraphModel dx="2785" dy="1807" grid="0" gridSize="10" guides="1" tooltips="1" connect="1" arrows="1" fold="1" page="0" pageScale="1" pageWidth="827" pageHeight="1169" math="0" shadow="0">
      <root>
        <mxCell id="0" />
        <mxCell id="1" parent="0" />
        <mxCell id="v1lEg4RcXo5JvEhgY80r-1" value="WS_SENDER" style="rounded=1;whiteSpace=wrap;html=1;fontStyle=1" vertex="1" parent="1">
          <mxGeometry x="-183" y="-210" width="120" height="60" as="geometry" />
        </mxCell>
        <mxCell id="v1lEg4RcXo5JvEhgY80r-2" value="" style="endArrow=classic;html=1;rounded=0;fontSize=12;startSize=8;endSize=8;curved=1;entryX=0.5;entryY=0;entryDx=0;entryDy=0;exitX=0.505;exitY=0.933;exitDx=0;exitDy=0;exitPerimeter=0;" edge="1" parent="1" source="v1lEg4RcXo5JvEhgY80r-3" target="v1lEg4RcXo5JvEhgY80r-1">
          <mxGeometry width="50" height="50" relative="1" as="geometry">
            <mxPoint x="-123" y="-230" as="sourcePoint" />
            <mxPoint x="-118" y="-251" as="targetPoint" />
          </mxGeometry>
        </mxCell>
        <mxCell id="v1lEg4RcXo5JvEhgY80r-3" value="Message" style="text;html=1;align=center;verticalAlign=middle;whiteSpace=wrap;rounded=0;fontSize=16;" vertex="1" parent="1">
          <mxGeometry x="-158.5" y="-263" width="71" height="30" as="geometry" />
        </mxCell>
        <mxCell id="v1lEg4RcXo5JvEhgY80r-4" value="S3 FIEL" style="shape=cylinder3;whiteSpace=wrap;html=1;boundedLbl=1;backgroundOutline=1;size=15;fontStyle=2" vertex="1" parent="1">
          <mxGeometry x="-363" y="-113" width="60" height="80" as="geometry" />
        </mxCell>
        <mxCell id="v1lEg4RcXo5JvEhgY80r-5" value="BD" style="shape=cylinder3;whiteSpace=wrap;html=1;boundedLbl=1;backgroundOutline=1;size=15;fontStyle=2" vertex="1" parent="1">
          <mxGeometry x="-363" y="148" width="60" height="80" as="geometry" />
        </mxCell>
        <mxCell id="v1lEg4RcXo5JvEhgY80r-12" value="" style="edgeStyle=elbowEdgeStyle;elbow=horizontal;endArrow=classic;html=1;curved=0;rounded=0;endSize=8;startSize=8;fontSize=12;exitX=0.5;exitY=1;exitDx=0;exitDy=0;entryX=1;entryY=0;entryDx=0;entryDy=27.5;entryPerimeter=0;strokeColor=#FF00FF;" edge="1" parent="1" source="v1lEg4RcXo5JvEhgY80r-1" target="v1lEg4RcXo5JvEhgY80r-5">
          <mxGeometry width="50" height="50" relative="1" as="geometry">
            <mxPoint x="-45" y="39" as="sourcePoint" />
            <mxPoint x="5" y="-11" as="targetPoint" />
            <Array as="points">
              <mxPoint x="-123" y="-50" />
            </Array>
          </mxGeometry>
        </mxCell>
        <mxCell id="v1lEg4RcXo5JvEhgY80r-13" value="create_query" style="text;html=1;align=center;verticalAlign=middle;whiteSpace=wrap;rounded=0;fontSize=16;" vertex="1" parent="1">
          <mxGeometry x="-270" y="143" width="103" height="30" as="geometry" />
        </mxCell>
        <mxCell id="v1lEg4RcXo5JvEhgY80r-14" value="" style="edgeStyle=elbowEdgeStyle;elbow=horizontal;endArrow=classic;html=1;curved=0;rounded=0;endSize=8;startSize=8;fontSize=12;entryX=1;entryY=0;entryDx=0;entryDy=27.5;entryPerimeter=0;strokeColor=#FF9933;strokeWidth=2;" edge="1" parent="1" target="v1lEg4RcXo5JvEhgY80r-4">
          <mxGeometry width="50" height="50" relative="1" as="geometry">
            <mxPoint x="-137" y="-150" as="sourcePoint" />
            <mxPoint x="5" y="-11" as="targetPoint" />
            <Array as="points">
              <mxPoint x="-137" y="-90" />
            </Array>
          </mxGeometry>
        </mxCell>
        <mxCell id="v1lEg4RcXo5JvEhgY80r-15" value="cid, wid" style="text;html=1;align=center;verticalAlign=middle;whiteSpace=wrap;rounded=0;fontSize=16;" vertex="1" parent="1">
          <mxGeometry x="-363" y="-150" width="60" height="30" as="geometry" />
        </mxCell>
        <mxCell id="v1lEg4RcXo5JvEhgY80r-16" value="WS_UPDATER" style="rounded=1;whiteSpace=wrap;html=1;fontStyle=1" vertex="1" parent="1">
          <mxGeometry x="15" y="25" width="120" height="60" as="geometry" />
        </mxCell>
        <mxCell id="v1lEg4RcXo5JvEhgY80r-17" value="" style="edgeStyle=elbowEdgeStyle;elbow=horizontal;endArrow=classic;html=1;curved=0;rounded=0;endSize=8;startSize=8;fontSize=12;entryX=0;entryY=0.25;entryDx=0;entryDy=0;exitX=0.61;exitY=1.026;exitDx=0;exitDy=0;exitPerimeter=0;strokeColor=#33FF33;strokeWidth=2;" edge="1" parent="1" source="v1lEg4RcXo5JvEhgY80r-1" target="v1lEg4RcXo5JvEhgY80r-16">
          <mxGeometry width="50" height="50" relative="1" as="geometry">
            <mxPoint x="-101" y="-127" as="sourcePoint" />
            <mxPoint x="73" as="targetPoint" />
            <Array as="points">
              <mxPoint x="-110" y="-70" />
            </Array>
          </mxGeometry>
        </mxCell>
        <mxCell id="v1lEg4RcXo5JvEhgY80r-18" value="" style="edgeStyle=elbowEdgeStyle;elbow=horizontal;endArrow=classic;html=1;curved=0;rounded=0;endSize=8;startSize=8;fontSize=12;exitX=0.5;exitY=1;exitDx=0;exitDy=0;entryX=1;entryY=0;entryDx=0;entryDy=52.5;entryPerimeter=0;strokeColor=#33FF33;strokeWidth=2;" edge="1" parent="1" source="v1lEg4RcXo5JvEhgY80r-16" target="v1lEg4RcXo5JvEhgY80r-5">
          <mxGeometry width="50" height="50" relative="1" as="geometry">
            <mxPoint x="23" y="50" as="sourcePoint" />
            <mxPoint x="73" as="targetPoint" />
            <Array as="points">
              <mxPoint x="75" y="141" />
            </Array>
          </mxGeometry>
        </mxCell>
        <mxCell id="v1lEg4RcXo5JvEhgY80r-19" value="WS_VERIFIER" style="rounded=1;whiteSpace=wrap;html=1;fontStyle=1" vertex="1" parent="1">
          <mxGeometry x="15" y="-210" width="120" height="60" as="geometry" />
        </mxCell>
        <mxCell id="v1lEg4RcXo5JvEhgY80r-20" value="" style="endArrow=classic;html=1;rounded=0;fontSize=12;startSize=8;endSize=8;curved=1;entryX=0.5;entryY=0;entryDx=0;entryDy=0;exitX=0.505;exitY=0.933;exitDx=0;exitDy=0;exitPerimeter=0;" edge="1" parent="1">
          <mxGeometry width="50" height="50" relative="1" as="geometry">
            <mxPoint x="74.83000000000001" y="-235" as="sourcePoint" />
            <mxPoint x="74.83000000000001" y="-210" as="targetPoint" />
          </mxGeometry>
        </mxCell>
        <mxCell id="v1lEg4RcXo5JvEhgY80r-21" value="Message" style="text;html=1;align=center;verticalAlign=middle;whiteSpace=wrap;rounded=0;fontSize=16;" vertex="1" parent="1">
          <mxGeometry x="39.5" y="-263" width="71" height="30" as="geometry" />
        </mxCell>
        <mxCell id="v1lEg4RcXo5JvEhgY80r-23" value="sat_connector" style="text;html=1;align=center;verticalAlign=middle;whiteSpace=wrap;rounded=0;fontSize=16;" vertex="1" parent="1">
          <mxGeometry x="-387.75" y="-175" width="109.5" height="30" as="geometry" />
        </mxCell>
        <mxCell id="v1lEg4RcXo5JvEhgY80r-24" value="" style="edgeStyle=elbowEdgeStyle;elbow=horizontal;endArrow=classic;html=1;curved=0;rounded=0;endSize=8;startSize=8;fontSize=12;exitX=0.5;exitY=1;exitDx=0;exitDy=0;entryX=0.5;entryY=0;entryDx=0;entryDy=0;strokeColor=#33FF33;strokeWidth=2;" edge="1" parent="1" source="v1lEg4RcXo5JvEhgY80r-19" target="v1lEg4RcXo5JvEhgY80r-16">
          <mxGeometry width="50" height="50" relative="1" as="geometry">
            <mxPoint x="101" y="35" as="sourcePoint" />
            <mxPoint x="151" y="-15" as="targetPoint" />
            <Array as="points">
              <mxPoint x="75" y="-61" />
            </Array>
          </mxGeometry>
        </mxCell>
        <mxCell id="v1lEg4RcXo5JvEhgY80r-25" value="WS_DOWNLOADER" style="rounded=1;whiteSpace=wrap;html=1;fontStyle=1" vertex="1" parent="1">
          <mxGeometry x="213" y="-210" width="120" height="60" as="geometry" />
        </mxCell>
        <mxCell id="v1lEg4RcXo5JvEhgY80r-26" value="" style="endArrow=classic;html=1;rounded=0;fontSize=12;startSize=8;endSize=8;curved=1;entryX=0.5;entryY=0;entryDx=0;entryDy=0;exitX=0.505;exitY=0.933;exitDx=0;exitDy=0;exitPerimeter=0;" edge="1" parent="1">
          <mxGeometry width="50" height="50" relative="1" as="geometry">
            <mxPoint x="272.83000000000004" y="-235" as="sourcePoint" />
            <mxPoint x="272.83000000000004" y="-210" as="targetPoint" />
          </mxGeometry>
        </mxCell>
        <mxCell id="v1lEg4RcXo5JvEhgY80r-27" value="Message" style="text;html=1;align=center;verticalAlign=middle;whiteSpace=wrap;rounded=0;fontSize=16;" vertex="1" parent="1">
          <mxGeometry x="237.5" y="-263" width="71" height="30" as="geometry" />
        </mxCell>
        <mxCell id="v1lEg4RcXo5JvEhgY80r-28" value="" style="edgeStyle=elbowEdgeStyle;elbow=horizontal;endArrow=classic;html=1;curved=0;rounded=0;endSize=8;startSize=8;fontSize=12;exitX=0.5;exitY=1;exitDx=0;exitDy=0;entryX=1;entryY=0.25;entryDx=0;entryDy=0;strokeColor=#33FF33;strokeWidth=2;" edge="1" parent="1" source="v1lEg4RcXo5JvEhgY80r-25" target="v1lEg4RcXo5JvEhgY80r-16">
          <mxGeometry width="50" height="50" relative="1" as="geometry">
            <mxPoint x="72" y="-12" as="sourcePoint" />
            <mxPoint x="122" y="-62" as="targetPoint" />
            <Array as="points">
              <mxPoint x="271" y="-56" />
            </Array>
          </mxGeometry>
        </mxCell>
        <mxCell id="v1lEg4RcXo5JvEhgY80r-29" value="" style="edgeStyle=segmentEdgeStyle;endArrow=classic;html=1;curved=0;rounded=0;endSize=8;startSize=8;fontSize=12;exitX=0.25;exitY=1;exitDx=0;exitDy=0;strokeColor=#FF9933;strokeWidth=2;" edge="1" parent="1" source="v1lEg4RcXo5JvEhgY80r-19">
          <mxGeometry width="50" height="50" relative="1" as="geometry">
            <mxPoint x="72" y="-12" as="sourcePoint" />
            <mxPoint x="-303" y="-71" as="targetPoint" />
            <Array as="points">
              <mxPoint x="43" y="-150" />
              <mxPoint x="43" y="-71" />
              <mxPoint x="-303" y="-71" />
            </Array>
          </mxGeometry>
        </mxCell>
        <mxCell id="v1lEg4RcXo5JvEhgY80r-30" value="" style="edgeStyle=segmentEdgeStyle;endArrow=classic;html=1;curved=0;rounded=0;endSize=8;startSize=8;fontSize=12;exitX=0.25;exitY=1;exitDx=0;exitDy=0;entryX=1;entryY=1;entryDx=0;entryDy=-15;entryPerimeter=0;strokeColor=#FF9933;strokeWidth=2;" edge="1" parent="1" source="v1lEg4RcXo5JvEhgY80r-25" target="v1lEg4RcXo5JvEhgY80r-4">
          <mxGeometry width="50" height="50" relative="1" as="geometry">
            <mxPoint x="55" y="-140" as="sourcePoint" />
            <mxPoint x="-293" y="-50" as="targetPoint" />
            <Array as="points">
              <mxPoint x="243" y="-48" />
            </Array>
          </mxGeometry>
        </mxCell>
        <mxCell id="v1lEg4RcXo5JvEhgY80r-31" value="S3 PACKAGE" style="shape=cylinder3;whiteSpace=wrap;html=1;boundedLbl=1;backgroundOutline=1;size=15;fontSize=11;fontStyle=2" vertex="1" parent="1">
          <mxGeometry x="-363" y="15" width="60" height="80" as="geometry" />
        </mxCell>
        <mxCell id="v1lEg4RcXo5JvEhgY80r-32" value="" style="edgeStyle=segmentEdgeStyle;endArrow=classic;html=1;curved=0;rounded=0;endSize=8;startSize=8;fontSize=12;exitX=0.75;exitY=1;exitDx=0;exitDy=0;entryX=1;entryY=0;entryDx=0;entryDy=52.5;entryPerimeter=0;strokeColor=#007FFF;strokeWidth=1;" edge="1" parent="1" source="v1lEg4RcXo5JvEhgY80r-25" target="v1lEg4RcXo5JvEhgY80r-31">
          <mxGeometry width="50" height="50" relative="1" as="geometry">
            <mxPoint x="72" y="-12" as="sourcePoint" />
            <mxPoint x="122" y="-62" as="targetPoint" />
            <Array as="points">
              <mxPoint x="303" y="3" />
              <mxPoint x="-257" y="3" />
              <mxPoint x="-257" y="68" />
            </Array>
          </mxGeometry>
        </mxCell>
        <mxCell id="v1lEg4RcXo5JvEhgY80r-33" value="Message" style="text;html=1;align=center;verticalAlign=middle;whiteSpace=wrap;rounded=0;fontSize=16;" vertex="1" parent="1">
          <mxGeometry x="-79" y="13" width="71" height="30" as="geometry" />
        </mxCell>
        <mxCell id="v1lEg4RcXo5JvEhgY80r-34" value="Message" style="text;html=1;align=center;verticalAlign=middle;whiteSpace=wrap;rounded=0;fontSize=16;" vertex="1" parent="1">
          <mxGeometry x="43" y="-44" width="71" height="30" as="geometry" />
        </mxCell>
        <mxCell id="v1lEg4RcXo5JvEhgY80r-35" value="Message" style="text;html=1;align=center;verticalAlign=middle;whiteSpace=wrap;rounded=0;fontSize=16;" vertex="1" parent="1">
          <mxGeometry x="174" y="13" width="71" height="30" as="geometry" />
        </mxCell>
        <mxCell id="v1lEg4RcXo5JvEhgY80r-36" value="package_repo" style="text;html=1;align=center;verticalAlign=middle;whiteSpace=wrap;rounded=0;fontSize=16;" vertex="1" parent="1">
          <mxGeometry x="-387.75" y="-20" width="109.5" height="30" as="geometry" />
        </mxCell>
        <mxCell id="v1lEg4RcXo5JvEhgY80r-38" value="" style="edgeStyle=segmentEdgeStyle;endArrow=classic;html=1;curved=0;rounded=0;endSize=8;startSize=8;fontSize=12;exitX=0.75;exitY=1;exitDx=0;exitDy=0;dashed=1;strokeColor=#BABABA;" edge="1" parent="1" source="v1lEg4RcXo5JvEhgY80r-19" target="v1lEg4RcXo5JvEhgY80r-39">
          <mxGeometry width="50" height="50" relative="1" as="geometry">
            <mxPoint x="72" y="-12" as="sourcePoint" />
            <mxPoint x="401" y="-69" as="targetPoint" />
            <Array as="points">
              <mxPoint x="103" y="-150" />
              <mxPoint x="103" y="-62" />
            </Array>
          </mxGeometry>
        </mxCell>
        <mxCell id="v1lEg4RcXo5JvEhgY80r-39" value="Sólo se manda el &quot;tick&quot; cuando el estatus es un estado final* o cuando el estatus es diferente al estatus inicial&amp;nbsp;&lt;div&gt;&lt;br&gt;&lt;/div&gt;&lt;div&gt;anteriormente solo cuando el estatus era diferente al estatus inicial&lt;/div&gt;" style="text;html=1;align=center;verticalAlign=middle;whiteSpace=wrap;rounded=0;fontSize=12;fontColor=#BABABA;" vertex="1" parent="1">
          <mxGeometry x="394" y="-112" width="261" height="98" as="geometry" />
        </mxCell>
        <mxCell id="v1lEg4RcXo5JvEhgY80r-42" value="&lt;div style=&quot;forced-color-adjust: none; color: rgb(204, 204, 204); font-family: Consolas, &amp;quot;Courier New&amp;quot;, monospace; font-size: 14px; font-style: normal; font-variant-ligatures: normal; font-variant-caps: normal; font-weight: 400; letter-spacing: normal; orphans: 2; text-indent: 0px; text-transform: none; widows: 2; word-spacing: 0px; -webkit-text-stroke-width: 0px; white-space: pre; text-decoration-thickness: initial; text-decoration-style: initial; text-decoration-color: initial;&quot;&gt;&lt;span style=&quot;forced-color-adjust: none; color: rgb(156, 220, 254);&quot;&gt;        final_states&lt;/span&gt;&lt;span style=&quot;forced-color-adjust: none; color: rgb(204, 204, 204);&quot;&gt; &lt;/span&gt;&lt;span style=&quot;forced-color-adjust: none; color: rgb(212, 212, 212);&quot;&gt;=&lt;/span&gt;&lt;span style=&quot;forced-color-adjust: none; color: rgb(204, 204, 204);&quot;&gt; {&lt;/span&gt;&lt;/div&gt;&lt;div style=&quot;forced-color-adjust: none; color: rgb(204, 204, 204); font-family: Consolas, &amp;quot;Courier New&amp;quot;, monospace; font-size: 14px; font-style: normal; font-variant-ligatures: normal; font-variant-caps: normal; font-weight: 400; letter-spacing: normal; orphans: 2; text-indent: 0px; text-transform: none; widows: 2; word-spacing: 0px; -webkit-text-stroke-width: 0px; white-space: pre; text-decoration-thickness: initial; text-decoration-style: initial; text-decoration-color: initial;&quot;&gt;&lt;span style=&quot;forced-color-adjust: none; color: rgb(204, 204, 204);&quot;&gt;&amp;nbsp; &amp;nbsp; &amp;nbsp; &amp;nbsp; &amp;nbsp; &amp;nbsp; &lt;/span&gt;&lt;span style=&quot;forced-color-adjust: none; color: rgb(78, 201, 176);&quot;&gt;QueryState&lt;/span&gt;&lt;span style=&quot;forced-color-adjust: none; color: rgb(204, 204, 204);&quot;&gt;.&lt;/span&gt;&lt;span style=&quot;forced-color-adjust: none; color: rgb(79, 193, 255);&quot;&gt;TO_DOWNLOAD&lt;/span&gt;&lt;span style=&quot;forced-color-adjust: none; color: rgb(204, 204, 204);&quot;&gt;, &amp;nbsp;&lt;/span&gt;&lt;span style=&quot;forced-color-adjust: none; color: rgb(106, 153, 85);&quot;&gt;# éxito&lt;/span&gt;&lt;/div&gt;&lt;div style=&quot;forced-color-adjust: none; color: rgb(204, 204, 204); font-family: Consolas, &amp;quot;Courier New&amp;quot;, monospace; font-size: 14px; font-style: normal; font-variant-ligatures: normal; font-variant-caps: normal; font-weight: 400; letter-spacing: normal; orphans: 2; text-indent: 0px; text-transform: none; widows: 2; word-spacing: 0px; -webkit-text-stroke-width: 0px; white-space: pre; text-decoration-thickness: initial; text-decoration-style: initial; text-decoration-color: initial;&quot;&gt;&lt;span style=&quot;forced-color-adjust: none; color: rgb(204, 204, 204);&quot;&gt;&amp;nbsp; &amp;nbsp; &amp;nbsp; &amp;nbsp; &amp;nbsp; &amp;nbsp; &lt;/span&gt;&lt;span style=&quot;forced-color-adjust: none; color: rgb(78, 201, 176);&quot;&gt;QueryState&lt;/span&gt;&lt;span style=&quot;forced-color-adjust: none; color: rgb(204, 204, 204);&quot;&gt;.&lt;/span&gt;&lt;span style=&quot;forced-color-adjust: none; color: rgb(79, 193, 255);&quot;&gt;MANUALLY_CANCELLED&lt;/span&gt;&lt;span style=&quot;forced-color-adjust: none; color: rgb(204, 204, 204);&quot;&gt;, &amp;nbsp;&lt;/span&gt;&lt;span style=&quot;forced-color-adjust: none; color: rgb(106, 153, 85);&quot;&gt;# error/cancelado&lt;/span&gt;&lt;/div&gt;&lt;div style=&quot;forced-color-adjust: none; color: rgb(204, 204, 204); font-family: Consolas, &amp;quot;Courier New&amp;quot;, monospace; font-size: 14px; font-style: normal; font-variant-ligatures: normal; font-variant-caps: normal; font-weight: 400; letter-spacing: normal; orphans: 2; text-indent: 0px; text-transform: none; widows: 2; word-spacing: 0px; -webkit-text-stroke-width: 0px; white-space: pre; text-decoration-thickness: initial; text-decoration-style: initial; text-decoration-color: initial;&quot;&gt;&lt;span style=&quot;forced-color-adjust: none; color: rgb(204, 204, 204);&quot;&gt;&amp;nbsp; &amp;nbsp; &amp;nbsp; &amp;nbsp; &amp;nbsp; &amp;nbsp; &lt;/span&gt;&lt;span style=&quot;forced-color-adjust: none; color: rgb(78, 201, 176);&quot;&gt;QueryState&lt;/span&gt;&lt;span style=&quot;forced-color-adjust: none; color: rgb(204, 204, 204);&quot;&gt;.&lt;/span&gt;&lt;span style=&quot;forced-color-adjust: none; color: rgb(79, 193, 255);&quot;&gt;TIME_LIMIT_REACHED&lt;/span&gt;&lt;span style=&quot;forced-color-adjust: none; color: rgb(204, 204, 204);&quot;&gt;, &amp;nbsp;&lt;/span&gt;&lt;span style=&quot;forced-color-adjust: none; color: rgb(106, 153, 85);&quot;&gt;# error/timeout&lt;/span&gt;&lt;/div&gt;&lt;div style=&quot;forced-color-adjust: none; color: rgb(204, 204, 204); font-family: Consolas, &amp;quot;Courier New&amp;quot;, monospace; font-size: 14px; font-style: normal; font-variant-ligatures: normal; font-variant-caps: normal; font-weight: 400; letter-spacing: normal; orphans: 2; text-indent: 0px; text-transform: none; widows: 2; word-spacing: 0px; -webkit-text-stroke-width: 0px; white-space: pre; text-decoration-thickness: initial; text-decoration-style: initial; text-decoration-color: initial;&quot;&gt;&lt;span style=&quot;forced-color-adjust: none; color: rgb(204, 204, 204);&quot;&gt;&amp;nbsp; &amp;nbsp; &amp;nbsp; &amp;nbsp; &amp;nbsp; &amp;nbsp; &lt;/span&gt;&lt;span style=&quot;forced-color-adjust: none; color: rgb(78, 201, 176);&quot;&gt;QueryState&lt;/span&gt;&lt;span style=&quot;forced-color-adjust: none; color: rgb(204, 204, 204);&quot;&gt;.&lt;/span&gt;&lt;span style=&quot;forced-color-adjust: none; color: rgb(79, 193, 255);&quot;&gt;SUBSTITUTED&lt;/span&gt;&lt;span style=&quot;forced-color-adjust: none; color: rgb(204, 204, 204);&quot;&gt;, &amp;nbsp;&lt;/span&gt;&lt;span style=&quot;forced-color-adjust: none; color: rgb(106, 153, 85);&quot;&gt;# error/necesita recrear&lt;/span&gt;&lt;/div&gt;&lt;div style=&quot;forced-color-adjust: none; color: rgb(204, 204, 204); font-family: Consolas, &amp;quot;Courier New&amp;quot;, monospace; font-size: 14px; font-style: normal; font-variant-ligatures: normal; font-variant-caps: normal; font-weight: 400; letter-spacing: normal; orphans: 2; text-indent: 0px; text-transform: none; widows: 2; word-spacing: 0px; -webkit-text-stroke-width: 0px; white-space: pre; text-decoration-thickness: initial; text-decoration-style: initial; text-decoration-color: initial;&quot;&gt;&lt;span style=&quot;forced-color-adjust: none; color: rgb(204, 204, 204);&quot;&gt;&amp;nbsp; &amp;nbsp; &amp;nbsp; &amp;nbsp; &amp;nbsp; &amp;nbsp; &lt;/span&gt;&lt;span style=&quot;forced-color-adjust: none; color: rgb(78, 201, 176);&quot;&gt;QueryState&lt;/span&gt;&lt;span style=&quot;forced-color-adjust: none; color: rgb(204, 204, 204);&quot;&gt;.&lt;/span&gt;&lt;span style=&quot;forced-color-adjust: none; color: rgb(79, 193, 255);&quot;&gt;INFORMATION_NOT_FOUND&lt;/span&gt;&lt;span style=&quot;forced-color-adjust: none; color: rgb(204, 204, 204);&quot;&gt;, &amp;nbsp;&lt;/span&gt;&lt;span style=&quot;forced-color-adjust: none; color: rgb(106, 153, 85);&quot;&gt;# error/no data&lt;/span&gt;&lt;/div&gt;&lt;div style=&quot;forced-color-adjust: none; color: rgb(204, 204, 204); font-family: Consolas, &amp;quot;Courier New&amp;quot;, monospace; font-size: 14px; font-style: normal; font-variant-ligatures: normal; font-variant-caps: normal; font-weight: 400; letter-spacing: normal; orphans: 2; text-indent: 0px; text-transform: none; widows: 2; word-spacing: 0px; -webkit-text-stroke-width: 0px; white-space: pre; text-decoration-thickness: initial; text-decoration-style: initial; text-decoration-color: initial;&quot;&gt;&lt;span style=&quot;forced-color-adjust: none; color: rgb(204, 204, 204);&quot;&gt;&amp;nbsp; &amp;nbsp; &amp;nbsp; &amp;nbsp; &amp;nbsp; &amp;nbsp; &lt;/span&gt;&lt;span style=&quot;forced-color-adjust: none; color: rgb(78, 201, 176);&quot;&gt;QueryState&lt;/span&gt;&lt;span style=&quot;forced-color-adjust: none; color: rgb(204, 204, 204);&quot;&gt;.&lt;/span&gt;&lt;span style=&quot;forced-color-adjust: none; color: rgb(79, 193, 255);&quot;&gt;ERROR_TOO_BIG&lt;/span&gt;&lt;span style=&quot;forced-color-adjust: none; color: rgb(204, 204, 204);&quot;&gt;, &amp;nbsp;&lt;/span&gt;&lt;span style=&quot;forced-color-adjust: none; color: rgb(106, 153, 85);&quot;&gt;# error/muy grande&lt;/span&gt;&lt;/div&gt;&lt;div style=&quot;forced-color-adjust: none; color: rgb(204, 204, 204); font-family: Consolas, &amp;quot;Courier New&amp;quot;, monospace; font-size: 14px; font-style: normal; font-variant-ligatures: normal; font-variant-caps: normal; font-weight: 400; letter-spacing: normal; orphans: 2; text-indent: 0px; text-transform: none; widows: 2; word-spacing: 0px; -webkit-text-stroke-width: 0px; white-space: pre; text-decoration-thickness: initial; text-decoration-style: initial; text-decoration-color: initial;&quot;&gt;&lt;span style=&quot;forced-color-adjust: none; color: rgb(204, 204, 204);&quot;&gt;&amp;nbsp; &amp;nbsp; &amp;nbsp; &amp;nbsp; &amp;nbsp; &amp;nbsp; &lt;/span&gt;&lt;span style=&quot;forced-color-adjust: none; color: rgb(78, 201, 176);&quot;&gt;QueryState&lt;/span&gt;&lt;span style=&quot;forced-color-adjust: none; color: rgb(204, 204, 204);&quot;&gt;.&lt;/span&gt;&lt;span style=&quot;forced-color-adjust: none; color: rgb(79, 193, 255);&quot;&gt;SPLITTED&lt;/span&gt;&lt;span style=&quot;forced-color-adjust: none; color: rgb(204, 204, 204);&quot;&gt;, &amp;nbsp;&lt;/span&gt;&lt;span style=&quot;forced-color-adjust: none; color: rgb(106, 153, 85);&quot;&gt;# éxito/dividido&lt;/span&gt;&lt;/div&gt;&lt;div style=&quot;forced-color-adjust: none; color: rgb(204, 204, 204); font-family: Consolas, &amp;quot;Courier New&amp;quot;, monospace; font-size: 14px; font-style: normal; font-variant-ligatures: normal; font-variant-caps: normal; font-weight: 400; letter-spacing: normal; orphans: 2; text-indent: 0px; text-transform: none; widows: 2; word-spacing: 0px; -webkit-text-stroke-width: 0px; white-space: pre; text-decoration-thickness: initial; text-decoration-style: initial; text-decoration-color: initial;&quot;&gt;&lt;span style=&quot;forced-color-adjust: none; color: rgb(204, 204, 204);&quot;&gt;&amp;nbsp; &amp;nbsp; &amp;nbsp; &amp;nbsp; &amp;nbsp; &amp;nbsp; &lt;/span&gt;&lt;span style=&quot;forced-color-adjust: none; color: rgb(78, 201, 176);&quot;&gt;QueryState&lt;/span&gt;&lt;span style=&quot;forced-color-adjust: none; color: rgb(204, 204, 204);&quot;&gt;.&lt;/span&gt;&lt;span style=&quot;forced-color-adjust: none; color: rgb(79, 193, 255);&quot;&gt;ERROR&lt;/span&gt;&lt;span style=&quot;forced-color-adjust: none; color: rgb(204, 204, 204);&quot;&gt;, &amp;nbsp;&lt;/span&gt;&lt;span style=&quot;forced-color-adjust: none; color: rgb(106, 153, 85);&quot;&gt;# error genérico&lt;/span&gt;&lt;/div&gt;&lt;div style=&quot;forced-color-adjust: none; color: rgb(204, 204, 204); font-family: Consolas, &amp;quot;Courier New&amp;quot;, monospace; font-size: 14px; font-style: normal; font-variant-ligatures: normal; font-variant-caps: normal; font-weight: 400; letter-spacing: normal; orphans: 2; text-indent: 0px; text-transform: none; widows: 2; word-spacing: 0px; -webkit-text-stroke-width: 0px; white-space: pre; text-decoration-thickness: initial; text-decoration-style: initial; text-decoration-color: initial;&quot;&gt;&lt;span style=&quot;forced-color-adjust: none; color: rgb(204, 204, 204);&quot;&gt;&amp;nbsp; &amp;nbsp; &amp;nbsp; &amp;nbsp; }&lt;/span&gt;&lt;/div&gt;" style="text;whiteSpace=wrap;html=1;fillColor=#f5f5f5;strokeColor=#666666;fontColor=#333333;align=left;verticalAlign=middle;" vertex="1" parent="1">
          <mxGeometry x="406" y="-6" width="495" height="220" as="geometry" />
        </mxCell>
        <mxCell id="v1lEg4RcXo5JvEhgY80r-43" value="" style="edgeStyle=segmentEdgeStyle;endArrow=classic;html=1;curved=0;rounded=0;endSize=8;startSize=8;fontSize=12;exitX=1;exitY=0.5;exitDx=0;exitDy=0;dashed=1;strokeColor=#BABABA;entryX=0;entryY=0.5;entryDx=0;entryDy=0;" edge="1" parent="1" source="v1lEg4RcXo5JvEhgY80r-1" target="v1lEg4RcXo5JvEhgY80r-19">
          <mxGeometry width="50" height="50" relative="1" as="geometry">
            <mxPoint x="115" y="-140" as="sourcePoint" />
            <mxPoint x="404" y="-52" as="targetPoint" />
            <Array as="points">
              <mxPoint x="-4" y="-180" />
              <mxPoint x="-4" y="-180" />
            </Array>
          </mxGeometry>
        </mxCell>
        <mxCell id="v1lEg4RcXo5JvEhgY80r-46" value="&lt;span style=&quot;color: rgb(79, 193, 255); font-family: Consolas, &amp;quot;Courier New&amp;quot;, monospace; white-space: pre;&quot;&gt;SAT_WS_QUERY_SENT&lt;/span&gt;" style="text;whiteSpace=wrap;html=1;fontSize=7;" vertex="1" parent="1">
          <mxGeometry x="-62.5" y="-228" width="77.5" height="22" as="geometry" />
        </mxCell>
        <mxCell id="v1lEg4RcXo5JvEhgY80r-47" value="" style="edgeStyle=segmentEdgeStyle;endArrow=classic;html=1;curved=0;rounded=0;endSize=8;startSize=8;fontSize=12;exitX=1;exitY=0.5;exitDx=0;exitDy=0;dashed=1;strokeColor=#BABABA;entryX=0;entryY=0.5;entryDx=0;entryDy=0;" edge="1" parent="1">
          <mxGeometry width="50" height="50" relative="1" as="geometry">
            <mxPoint x="135" y="-180" as="sourcePoint" />
            <mxPoint x="213" y="-180" as="targetPoint" />
            <Array as="points">
              <mxPoint x="194" y="-180" />
              <mxPoint x="194" y="-180" />
            </Array>
          </mxGeometry>
        </mxCell>
        <mxCell id="v1lEg4RcXo5JvEhgY80r-48" value="&lt;font color=&quot;#4fc1ff&quot; face=&quot;Consolas, Courier New, monospace&quot;&gt;&lt;span style=&quot;white-space: pre;&quot;&gt;SAT_WS_QUERY_DOWNLOAD_READY&lt;/span&gt;&lt;/font&gt;" style="text;whiteSpace=wrap;html=1;fontSize=7;align=center;" vertex="1" parent="1">
          <mxGeometry x="138" y="-228" width="77.5" height="22" as="geometry" />
        </mxCell>
        <mxCell id="v1lEg4RcXo5JvEhgY80r-49" value="&lt;span style=&quot;color: rgb(79, 193, 255); font-family: Consolas, &amp;quot;Courier New&amp;quot;, monospace; white-space: pre;&quot;&gt;WS_UPDATER&lt;/span&gt;" style="text;whiteSpace=wrap;html=1;fontSize=7;align=center;" vertex="1" parent="1">
          <mxGeometry x="-82.25" y="37" width="77.5" height="22" as="geometry" />
        </mxCell>
        <mxCell id="v1lEg4RcXo5JvEhgY80r-50" value="&lt;span style=&quot;color: rgb(79, 193, 255); font-family: Consolas, &amp;quot;Courier New&amp;quot;, monospace; white-space: pre;&quot;&gt;WS_UPDATER&lt;/span&gt;" style="text;whiteSpace=wrap;html=1;fontSize=7;align=center;" vertex="1" parent="1">
          <mxGeometry x="36.5" y="-20" width="77.5" height="22" as="geometry" />
        </mxCell>
        <mxCell id="v1lEg4RcXo5JvEhgY80r-51" value="&lt;span style=&quot;color: rgb(79, 193, 255); font-family: Consolas, &amp;quot;Courier New&amp;quot;, monospace; white-space: pre;&quot;&gt;WS_UPDATER&lt;/span&gt;" style="text;whiteSpace=wrap;html=1;fontSize=7;align=center;" vertex="1" parent="1">
          <mxGeometry x="170.75" y="37" width="77.5" height="22" as="geometry" />
        </mxCell>
        <mxCell id="v1lEg4RcXo5JvEhgY80r-52" value="" style="edgeStyle=segmentEdgeStyle;endArrow=classic;html=1;curved=0;rounded=0;endSize=8;startSize=8;fontSize=12;dashed=1;strokeColor=#BABABA;entryX=0;entryY=0.5;entryDx=0;entryDy=0;exitX=1;exitY=0.5;exitDx=0;exitDy=0;" edge="1" parent="1" source="v1lEg4RcXo5JvEhgY80r-53" target="v1lEg4RcXo5JvEhgY80r-1">
          <mxGeometry width="50" height="50" relative="1" as="geometry">
            <mxPoint x="-455" y="-299" as="sourcePoint" />
            <mxPoint x="25" y="-170" as="targetPoint" />
            <Array as="points">
              <mxPoint x="-247" y="-299" />
              <mxPoint x="-247" y="-180" />
            </Array>
          </mxGeometry>
        </mxCell>
        <mxCell id="v1lEg4RcXo5JvEhgY80r-53" value="&lt;span style=&quot;color: rgb(186, 186, 186); font-family: Helvetica; font-size: 12px; font-style: normal; font-variant-ligatures: normal; font-variant-caps: normal; font-weight: 400; letter-spacing: normal; orphans: 2; text-align: center; text-indent: 0px; text-transform: none; widows: 2; word-spacing: 0px; -webkit-text-stroke-width: 0px; white-space: normal; background-color: rgb(255, 255, 255); text-decoration-thickness: initial; text-decoration-style: initial; text-decoration-color: initial; display: inline !important; float: none;&quot;&gt;METADATA | XML&lt;/span&gt;" style="text;whiteSpace=wrap;html=1;" vertex="1" parent="1">
          <mxGeometry x="-557" y="-313" width="102" height="28" as="geometry" />
        </mxCell>
        <mxCell id="v1lEg4RcXo5JvEhgY80r-54" value="&lt;span style=&quot;color: rgb(186, 186, 186); font-family: Helvetica; font-size: 12px; font-style: normal; font-variant-ligatures: normal; font-variant-caps: normal; font-weight: 400; letter-spacing: normal; orphans: 2; text-align: center; text-indent: 0px; text-transform: none; widows: 2; word-spacing: 0px; -webkit-text-stroke-width: 0px; white-space: normal; background-color: rgb(255, 255, 255); text-decoration-thickness: initial; text-decoration-style: initial; text-decoration-color: initial; display: inline !important; float: none;&quot;&gt;CRON SYNC_METADATA&lt;/span&gt;" style="text;whiteSpace=wrap;html=1;" vertex="1" parent="1">
          <mxGeometry x="-777" y="-332.5" width="161" height="28" as="geometry" />
        </mxCell>
        <mxCell id="v1lEg4RcXo5JvEhgY80r-55" value="&lt;span style=&quot;color: rgb(186, 186, 186); font-family: Helvetica; font-size: 12px; font-style: normal; font-variant-ligatures: normal; font-variant-caps: normal; font-weight: 400; letter-spacing: normal; orphans: 2; text-align: center; text-indent: 0px; text-transform: none; widows: 2; word-spacing: 0px; -webkit-text-stroke-width: 0px; white-space: normal; background-color: rgb(255, 255, 255); text-decoration-thickness: initial; text-decoration-style: initial; text-decoration-color: initial; display: inline !important; float: none;&quot;&gt;FIRST_COMPANY_CREATE&lt;/span&gt;" style="text;whiteSpace=wrap;html=1;" vertex="1" parent="1">
          <mxGeometry x="-777" y="-293.5" width="161" height="28" as="geometry" />
        </mxCell>
        <mxCell id="v1lEg4RcXo5JvEhgY80r-57" value="&lt;div style=&quot;text-align: center;&quot;&gt;&lt;span style=&quot;background-color: initial;&quot;&gt;&lt;font color=&quot;#bababa&quot;&gt;ISSUED | DATES&lt;/font&gt;&lt;/span&gt;&lt;/div&gt;" style="text;whiteSpace=wrap;html=1;" vertex="1" parent="1">
          <mxGeometry x="-434" y="-328" width="102" height="28" as="geometry" />
        </mxCell>
        <mxCell id="v1lEg4RcXo5JvEhgY80r-58" value="&lt;div style=&quot;&quot;&gt;&lt;span style=&quot;background-color: initial;&quot;&gt;&lt;font color=&quot;#bababa&quot;&gt;5 YEARS MAX&lt;/font&gt;&lt;/span&gt;&lt;/div&gt;" style="text;whiteSpace=wrap;html=1;align=center;" vertex="1" parent="1">
          <mxGeometry x="-434" y="-374" width="102" height="28" as="geometry" />
        </mxCell>
        <mxCell id="v1lEg4RcXo5JvEhgY80r-59" value="15 min max" style="ellipse;shape=umlControl;whiteSpace=wrap;html=1;strokeColor=#CCCCCC;fontColor=#CCCCCC;" vertex="1" parent="1">
          <mxGeometry x="40" y="-343" width="70" height="80" as="geometry" />
        </mxCell>
        <mxCell id="v1lEg4RcXo5JvEhgY80r-60" value="&lt;div style=&quot;&quot;&gt;&lt;font color=&quot;#bababa&quot;&gt;PROD: 15&lt;/font&gt;&lt;/div&gt;&lt;div style=&quot;&quot;&gt;&lt;font color=&quot;#bababa&quot;&gt;QA: 5&lt;/font&gt;&lt;/div&gt;&lt;div style=&quot;&quot;&gt;&lt;font color=&quot;#bababa&quot;&gt;DEV: 1&lt;/font&gt;&lt;/div&gt;" style="text;whiteSpace=wrap;html=1;align=center;" vertex="1" parent="1">
          <mxGeometry x="24.25" y="-409" width="102" height="58" as="geometry" />
        </mxCell>
        <mxCell id="v1lEg4RcXo5JvEhgY80r-61" value="" style="edgeStyle=segmentEdgeStyle;endArrow=classic;html=1;curved=0;rounded=0;endSize=8;startSize=8;fontSize=12;dashed=1;strokeColor=#BABABA;exitX=1;exitY=0.5;exitDx=0;exitDy=0;" edge="1" parent="1" source="v1lEg4RcXo5JvEhgY80r-25">
          <mxGeometry width="50" height="50" relative="1" as="geometry">
            <mxPoint x="-445" y="-289" as="sourcePoint" />
            <mxPoint x="588" y="-289" as="targetPoint" />
            <Array as="points">
              <mxPoint x="384" y="-180" />
              <mxPoint x="384" y="-289" />
            </Array>
          </mxGeometry>
        </mxCell>
        <mxCell id="v1lEg4RcXo5JvEhgY80r-62" value="&lt;div style=&quot;text-align: center;&quot;&gt;&lt;span style=&quot;background-color: initial;&quot;&gt;&lt;font color=&quot;#bababa&quot;&gt;PROCESSORS&lt;/font&gt;&lt;/span&gt;&lt;/div&gt;" style="text;whiteSpace=wrap;html=1;" vertex="1" parent="1">
          <mxGeometry x="595" y="-302" width="102" height="28" as="geometry" />
        </mxCell>
        <mxCell id="v1lEg4RcXo5JvEhgY80r-63" value="&lt;div style=&quot;text-align: center;&quot;&gt;&lt;span style=&quot;background-color: initial;&quot;&gt;&lt;font color=&quot;#bababa&quot;&gt;METADATA&lt;/font&gt;&lt;/span&gt;&lt;/div&gt;" style="text;whiteSpace=wrap;html=1;" vertex="1" parent="1">
          <mxGeometry x="697" y="-321.5" width="79" height="28" as="geometry" />
        </mxCell>
        <mxCell id="v1lEg4RcXo5JvEhgY80r-64" value="&lt;div style=&quot;text-align: center;&quot;&gt;&lt;font color=&quot;#bababa&quot;&gt;CFDI&lt;/font&gt;&lt;/div&gt;" style="text;whiteSpace=wrap;html=1;" vertex="1" parent="1">
          <mxGeometry x="697" y="-285" width="79" height="28" as="geometry" />
        </mxCell>
        <mxCell id="v1lEg4RcXo5JvEhgY80r-65" value="&lt;div&gt;&lt;br&gt;&lt;/div&gt;SAT" style="strokeWidth=2;html=1;shape=mxgraph.flowchart.database;whiteSpace=wrap;" vertex="1" parent="1">
          <mxGeometry x="40.37" y="-565" width="69.25" height="72" as="geometry" />
        </mxCell>
        <mxCell id="v1lEg4RcXo5JvEhgY80r-67" value="" style="edgeStyle=elbowEdgeStyle;elbow=horizontal;endArrow=classic;html=1;curved=0;rounded=0;endSize=8;startSize=8;fontSize=12;entryX=0;entryY=0.85;entryDx=0;entryDy=0;entryPerimeter=0;strokeColor=#FF9933;strokeWidth=2;exitX=0.75;exitY=0;exitDx=0;exitDy=0;" edge="1" parent="1" source="v1lEg4RcXo5JvEhgY80r-1" target="v1lEg4RcXo5JvEhgY80r-65">
          <mxGeometry width="50" height="50" relative="1" as="geometry">
            <mxPoint x="-137" y="-150" as="sourcePoint" />
            <mxPoint x="-303" y="-85" as="targetPoint" />
            <Array as="points">
              <mxPoint x="-77" y="-502" />
            </Array>
          </mxGeometry>
        </mxCell>
        <mxCell id="v1lEg4RcXo5JvEhgY80r-68" value="" style="edgeStyle=elbowEdgeStyle;elbow=horizontal;endArrow=classic;html=1;curved=0;rounded=0;endSize=8;startSize=8;fontSize=12;strokeColor=#FF9933;strokeWidth=2;exitX=0.868;exitY=-0.021;exitDx=0;exitDy=0;exitPerimeter=0;entryX=1.009;entryY=0.705;entryDx=0;entryDy=0;entryPerimeter=0;" edge="1" parent="1" source="v1lEg4RcXo5JvEhgY80r-19" target="v1lEg4RcXo5JvEhgY80r-65">
          <mxGeometry width="50" height="50" relative="1" as="geometry">
            <mxPoint x="118" y="-231" as="sourcePoint" />
            <mxPoint x="60" y="-466" as="targetPoint" />
            <Array as="points">
              <mxPoint x="119" y="-360" />
            </Array>
          </mxGeometry>
        </mxCell>
        <mxCell id="v1lEg4RcXo5JvEhgY80r-69" value="" style="edgeStyle=elbowEdgeStyle;elbow=horizontal;endArrow=classic;html=1;curved=0;rounded=0;endSize=8;startSize=8;fontSize=12;strokeColor=#FF9933;strokeWidth=2;exitX=0.905;exitY=0.005;exitDx=0;exitDy=0;exitPerimeter=0;entryX=1;entryY=0.5;entryDx=0;entryDy=0;entryPerimeter=0;" edge="1" parent="1" source="v1lEg4RcXo5JvEhgY80r-25" target="v1lEg4RcXo5JvEhgY80r-65">
          <mxGeometry width="50" height="50" relative="1" as="geometry">
            <mxPoint x="129" y="-201" as="sourcePoint" />
            <mxPoint x="120" y="-504" as="targetPoint" />
            <Array as="points">
              <mxPoint x="322" y="-337" />
            </Array>
          </mxGeometry>
        </mxCell>
        <mxCell id="v1lEg4RcXo5JvEhgY80r-70" value="" style="edgeStyle=segmentEdgeStyle;endArrow=classic;html=1;curved=0;rounded=0;endSize=8;startSize=8;fontSize=12;exitX=0.75;exitY=1;exitDx=0;exitDy=0;dashed=1;strokeColor=#BABABA;entryX=0.5;entryY=0;entryDx=0;entryDy=0;" edge="1" parent="1" source="v1lEg4RcXo5JvEhgY80r-16" target="v1lEg4RcXo5JvEhgY80r-71">
          <mxGeometry width="50" height="50" relative="1" as="geometry">
            <mxPoint x="115" y="-140" as="sourcePoint" />
            <mxPoint x="238" y="333" as="targetPoint" />
            <Array as="points">
              <mxPoint x="105" y="219" />
              <mxPoint x="234" y="219" />
              <mxPoint x="234" y="292" />
              <mxPoint x="236" y="292" />
            </Array>
          </mxGeometry>
        </mxCell>
        <mxCell id="v1lEg4RcXo5JvEhgY80r-71" value="Para evitar dejar el estatus con un valor &quot;incorrecto&quot; al recibir múltiples peticiones se valida con la fecha en la que fue enviado" style="text;html=1;align=center;verticalAlign=middle;whiteSpace=wrap;rounded=0;fontSize=12;fontColor=#BABABA;" vertex="1" parent="1">
          <mxGeometry x="98" y="317" width="261" height="98" as="geometry" />
        </mxCell>
        <mxCell id="v1lEg4RcXo5JvEhgY80r-74" style="edgeStyle=none;curved=1;rounded=0;orthogonalLoop=1;jettySize=auto;html=1;entryX=0.5;entryY=0;entryDx=0;entryDy=0;fontSize=12;startSize=8;endSize=8;" edge="1" parent="1" source="v1lEg4RcXo5JvEhgY80r-71" target="v1lEg4RcXo5JvEhgY80r-71">
          <mxGeometry relative="1" as="geometry" />
        </mxCell>
        <mxCell id="v1lEg4RcXo5JvEhgY80r-75" value="&lt;div style=&quot;&quot;&gt;&lt;span style=&quot;background-color: initial;&quot;&gt;&lt;font color=&quot;#bababa&quot;&gt;1 MILLON METADATA&lt;/font&gt;&lt;/span&gt;&lt;/div&gt;" style="text;whiteSpace=wrap;html=1;align=center;" vertex="1" parent="1">
          <mxGeometry x="776" y="-368" width="155" height="28" as="geometry" />
        </mxCell>
        <mxCell id="v1lEg4RcXo5JvEhgY80r-77" value="&lt;div style=&quot;&quot;&gt;&lt;span style=&quot;background-color: initial;&quot;&gt;&lt;font color=&quot;#bababa&quot;&gt;200 MIL XML&lt;/font&gt;&lt;/span&gt;&lt;/div&gt;" style="text;whiteSpace=wrap;html=1;align=center;" vertex="1" parent="1">
          <mxGeometry x="776" y="-343" width="155" height="28" as="geometry" />
        </mxCell>
      </root>
    </mxGraphModel>
  </diagram>
</mxfile>
